<?xml version="1.0" encoding="UTF-8" standalone="no"?>
<!DOCTYPE svg PUBLIC "-//W3C//DTD SVG 1.1//EN"
 "http://www.w3.org/Graphics/SVG/1.1/DTD/svg11.dtd">
<!-- Generated by graphviz version 2.38.0 (20140413.2041)
 -->
<!-- Title: G Pages: 1 -->
<svg width="740pt" height="1014pt"
 viewBox="0.00 0.00 739.58 1014.00" xmlns="http://www.w3.org/2000/svg" xmlns:xlink="http://www.w3.org/1999/xlink">
<g id="graph0" class="graph" transform="scale(1 1) rotate(0) translate(4 1010)">
<title>G</title>
<polygon fill="white" stroke="none" points="-4,4 -4,-1010 735.576,-1010 735.576,4 -4,4"/>
<g id="clust1" class="cluster"><title>cluster_Global</title>
<path fill="none" stroke="gray" d="M20,-152C20,-152 711.576,-152 711.576,-152 717.576,-152 723.576,-158 723.576,-164 723.576,-164 723.576,-986 723.576,-986 723.576,-992 717.576,-998 711.576,-998 711.576,-998 20,-998 20,-998 14,-998 8,-992 8,-986 8,-986 8,-164 8,-164 8,-158 14,-152 20,-152"/>
<text text-anchor="middle" x="365.788" y="-985.2" font-family="Times,serif" font-size="11.00" fill="gray">Global</text>
</g>
<g id="clust2" class="cluster"><title>cluster_\Chadicus</title>
<path fill="none" stroke="gray" d="M28,-160C28,-160 703.576,-160 703.576,-160 709.576,-160 715.576,-166 715.576,-172 715.576,-172 715.576,-958 715.576,-958 715.576,-964 709.576,-970 703.576,-970 703.576,-970 28,-970 28,-970 22,-970 16,-964 16,-958 16,-958 16,-172 16,-172 16,-166 22,-160 28,-160"/>
<text text-anchor="middle" x="365.788" y="-957.2" font-family="Times,serif" font-size="11.00" fill="gray">Chadicus</text>
</g>
<g id="clust3" class="cluster"><title>cluster_\Chadicus\Marvel</title>
<path fill="none" stroke="gray" d="M36,-168C36,-168 695.576,-168 695.576,-168 701.576,-168 707.576,-174 707.576,-180 707.576,-180 707.576,-930 707.576,-930 707.576,-936 701.576,-942 695.576,-942 695.576,-942 36,-942 36,-942 30,-942 24,-936 24,-930 24,-930 24,-180 24,-180 24,-174 30,-168 36,-168"/>
<text text-anchor="middle" x="365.788" y="-929.2" font-family="Times,serif" font-size="11.00" fill="gray">Marvel</text>
</g>
<g id="clust4" class="cluster"><title>cluster_\Chadicus\Marvel\Api</title>
<path fill="none" stroke="gray" d="M44,-176C44,-176 687.576,-176 687.576,-176 693.576,-176 699.576,-182 699.576,-188 699.576,-188 699.576,-902 699.576,-902 699.576,-908 693.576,-914 687.576,-914 687.576,-914 44,-914 44,-914 38,-914 32,-908 32,-902 32,-902 32,-188 32,-188 32,-182 38,-176 44,-176"/>
<text text-anchor="middle" x="365.788" y="-901.2" font-family="Times,serif" font-size="11.00" fill="gray">Api</text>
</g>
<g id="clust5" class="cluster"><title>cluster_\Chadicus\Marvel\Api\Entities</title>
<path fill="none" stroke="gray" d="M52,-338C52,-338 679.576,-338 679.576,-338 685.576,-338 691.576,-344 691.576,-350 691.576,-350 691.576,-668 691.576,-668 691.576,-674 685.576,-680 679.576,-680 679.576,-680 52,-680 52,-680 46,-680 40,-674 40,-668 40,-668 40,-350 40,-350 40,-344 46,-338 52,-338"/>
<text text-anchor="middle" x="365.788" y="-667.2" font-family="Times,serif" font-size="11.00" fill="gray">Entities</text>
</g>
<!-- \\Chadicus\\Marvel\\Api\\Entities\\ImageVariant -->
<g id="node1" class="node"><title>\\Chadicus\\Marvel\\Api\\Entities\\ImageVariant</title>
<polygon fill="none" stroke="black" points="683.576,-382 585.576,-382 585.576,-346 683.576,-346 683.576,-382"/>
<text text-anchor="middle" x="634.576" y="-361.2" font-family="Courier,monospace" font-size="11.00">ImageVariant</text>
</g>
<!-- \\Chadicus\\Spl\\Types\\AbstractEnum -->
<g id="node20" class="node"><title>\\Chadicus\\Spl\\Types\\AbstractEnum</title>
<ellipse fill="none" stroke="black" cx="375.788" cy="-126" rx="137.576" ry="18"/>
<text text-anchor="middle" x="375.788" y="-122.3" font-family="Times,serif" font-size="14.00" fill="gray">\Chadicus\Spl\Types\AbstractEnum</text>
</g>
<!-- \\Chadicus\\Marvel\\Api\\Entities\\ImageVariant&#45;&gt;\\Chadicus\\Spl\\Types\\AbstractEnum -->
<g id="edge5" class="edge"><title>\\Chadicus\\Marvel\\Api\\Entities\\ImageVariant&#45;&gt;\\Chadicus\\Spl\\Types\\AbstractEnum</title>
<path fill="none" stroke="black" d="M589.665,-345.735C588.224,-344.559 586.853,-343.315 585.576,-342 528.407,-283.141 573.764,-227.767 513.576,-172 500.317,-159.716 483.669,-150.702 466.594,-144.091"/>
<polygon fill="none" stroke="black" points="467.677,-140.761 457.083,-140.66 465.302,-147.345 467.677,-140.761"/>
</g>
<!-- \\Chadicus\\Marvel\\Api\\Entities\\Character -->
<g id="node2" class="node"><title>\\Chadicus\\Marvel\\Api\\Entities\\Character</title>
<polygon fill="none" stroke="black" points="673.076,-598 596.076,-598 596.076,-562 673.076,-562 673.076,-598"/>
<text text-anchor="middle" x="634.576" y="-577.2" font-family="Courier,monospace" font-size="11.00">Character</text>
</g>
<!-- \\Chadicus\\Marvel\\Api\\Entities\\Url -->
<g id="node3" class="node"><title>\\Chadicus\\Marvel\\Api\\Entities\\Url</title>
<polygon fill="none" stroke="black" points="661.576,-652 607.576,-652 607.576,-616 661.576,-616 661.576,-652"/>
<text text-anchor="middle" x="634.576" y="-631.2" font-family="Courier,monospace" font-size="11.00">Url</text>
</g>
<!-- \\Chadicus\\Marvel\\Api\\Entities\\AbstractEntity -->
<g id="node5" class="node"><title>\\Chadicus\\Marvel\\Api\\Entities\\AbstractEntity</title>
<polygon fill="none" stroke="black" points="431.288,-544 320.288,-544 320.288,-508 431.288,-508 431.288,-544"/>
<text text-anchor="start" x="341.788" y="-529.2" font-family="Courier,monospace" font-size="11.00">«abstract»</text>
<text text-anchor="start" x="328.288" y="-517.2" font-family="Courier,monospace" font-size="11.00">AbstractEntity</text>
</g>
<!-- \\Chadicus\\Marvel\\Api\\Entities\\Url&#45;&gt;\\Chadicus\\Marvel\\Api\\Entities\\AbstractEntity -->
<g id="edge6" class="edge"><title>\\Chadicus\\Marvel\\Api\\Entities\\Url&#45;&gt;\\Chadicus\\Marvel\\Api\\Entities\\AbstractEntity</title>
<path fill="none" stroke="black" d="M607.418,-620.371C600.187,-616.315 592.444,-611.693 585.576,-607 551.417,-583.659 551.301,-564.982 513.576,-548 491.317,-537.98 465.21,-532.447 441.804,-529.419"/>
<polygon fill="none" stroke="black" points="441.949,-525.912 431.612,-528.232 441.14,-532.865 441.949,-525.912"/>
</g>
<!-- \\Chadicus\\Marvel\\Api\\Entities\\ResourceList -->
<g id="node4" class="node"><title>\\Chadicus\\Marvel\\Api\\Entities\\ResourceList</title>
<polygon fill="none" stroke="black" points="683.576,-490 585.576,-490 585.576,-454 683.576,-454 683.576,-490"/>
<text text-anchor="middle" x="634.576" y="-469.2" font-family="Courier,monospace" font-size="11.00">ResourceList</text>
</g>
<!-- \\Chadicus\\Marvel\\Api\\Entities\\EntityInterface -->
<g id="node8" class="node"><title>\\Chadicus\\Marvel\\Api\\Entities\\EntityInterface</title>
<polygon fill="none" stroke="black" points="166,-544 48,-544 48,-508 166,-508 166,-544"/>
<text text-anchor="middle" x="107" y="-523.2" font-family="Courier,monospace" font-size="11.00">EntityInterface</text>
</g>
<!-- \\Chadicus\\Marvel\\Api\\Entities\\AbstractEntity&#45;&gt;\\Chadicus\\Marvel\\Api\\Entities\\EntityInterface -->
<g id="edge7" class="edge"><title>\\Chadicus\\Marvel\\Api\\Entities\\AbstractEntity&#45;&gt;\\Chadicus\\Marvel\\Api\\Entities\\EntityInterface</title>
<path fill="none" stroke="black" stroke-dasharray="1,5" d="M320.156,-526C278.575,-526 221.088,-526 176.442,-526"/>
<polygon fill="none" stroke="black" points="176.257,-522.5 166.257,-526 176.257,-529.5 176.257,-522.5"/>
</g>
<!-- \\Chadicus\\Marvel\\Api\\Entities\\Image -->
<g id="node6" class="node"><title>\\Chadicus\\Marvel\\Api\\Entities\\Image</title>
<polygon fill="none" stroke="black" points="661.576,-544 607.576,-544 607.576,-508 661.576,-508 661.576,-544"/>
<text text-anchor="middle" x="634.576" y="-523.2" font-family="Courier,monospace" font-size="11.00">Image</text>
</g>
<!-- \\Chadicus\\Marvel\\Api\\Entities\\Image&#45;&gt;\\Chadicus\\Marvel\\Api\\Entities\\AbstractEntity -->
<g id="edge8" class="edge"><title>\\Chadicus\\Marvel\\Api\\Entities\\Image&#45;&gt;\\Chadicus\\Marvel\\Api\\Entities\\AbstractEntity</title>
<path fill="none" stroke="black" d="M607.54,-526C568.909,-526 495.197,-526 441.449,-526"/>
<polygon fill="none" stroke="black" points="441.32,-522.5 431.32,-526 441.32,-529.5 441.32,-522.5"/>
</g>
<!-- \\Chadicus\\Marvel\\Api\\Entities\\Price -->
<g id="node7" class="node"><title>\\Chadicus\\Marvel\\Api\\Entities\\Price</title>
<polygon fill="none" stroke="black" points="661.576,-436 607.576,-436 607.576,-400 661.576,-400 661.576,-436"/>
<text text-anchor="middle" x="634.576" y="-415.2" font-family="Courier,monospace" font-size="11.00">Price</text>
</g>
<!-- \\Chadicus\\Marvel\\Api\\Entities\\Price&#45;&gt;\\Chadicus\\Marvel\\Api\\Entities\\AbstractEntity -->
<g id="edge9" class="edge"><title>\\Chadicus\\Marvel\\Api\\Entities\\Price&#45;&gt;\\Chadicus\\Marvel\\Api\\Entities\\AbstractEntity</title>
<path fill="none" stroke="black" d="M607.418,-431.629C600.187,-435.685 592.444,-440.307 585.576,-445 551.417,-468.341 551.301,-487.018 513.576,-504 491.317,-514.02 465.21,-519.553 441.804,-522.581"/>
<polygon fill="none" stroke="black" points="441.14,-519.135 431.612,-523.768 441.949,-526.088 441.14,-519.135"/>
</g>
<!-- \\Chadicus\\Marvel\\Api\\Client -->
<g id="node9" class="node"><title>\\Chadicus\\Marvel\\Api\\Client</title>
<polygon fill="none" stroke="black" points="663.076,-832 606.076,-832 606.076,-796 663.076,-796 663.076,-832"/>
<text text-anchor="middle" x="634.576" y="-811.2" font-family="Courier,monospace" font-size="11.00">Client</text>
</g>
<!-- \\Chadicus\\Marvel\\Api\\MongoCache -->
<g id="node10" class="node"><title>\\Chadicus\\Marvel\\Api\\MongoCache</title>
<polygon fill="none" stroke="black" points="676.576,-886 592.576,-886 592.576,-850 676.576,-850 676.576,-886"/>
<text text-anchor="middle" x="634.576" y="-865.2" font-family="Courier,monospace" font-size="11.00">MongoCache</text>
</g>
<!-- \\Chadicus\\Marvel\\Api\\Cache -->
<g id="node16" class="node"><title>\\Chadicus\\Marvel\\Api\\Cache</title>
<polygon fill="none" stroke="black" points="402.788,-832 348.788,-832 348.788,-796 402.788,-796 402.788,-832"/>
<text text-anchor="middle" x="375.788" y="-811.2" font-family="Courier,monospace" font-size="11.00">Cache</text>
</g>
<!-- \\Chadicus\\Marvel\\Api\\MongoCache&#45;&gt;\\Chadicus\\Marvel\\Api\\Cache -->
<g id="edge1" class="edge"><title>\\Chadicus\\Marvel\\Api\\MongoCache&#45;&gt;\\Chadicus\\Marvel\\Api\\Cache</title>
<path fill="none" stroke="black" stroke-dasharray="1,5" d="M592.318,-859.324C542.655,-848.88 460.06,-831.511 412.842,-821.582"/>
<polygon fill="none" stroke="black" points="413.553,-818.155 403.047,-819.522 412.113,-825.005 413.553,-818.155"/>
</g>
<!-- \\Chadicus\\Marvel\\Api\\Response -->
<g id="node11" class="node"><title>\\Chadicus\\Marvel\\Api\\Response</title>
<polygon fill="none" stroke="black" points="670.076,-724 599.076,-724 599.076,-688 670.076,-688 670.076,-724"/>
<text text-anchor="middle" x="634.576" y="-703.2" font-family="Courier,monospace" font-size="11.00">Response</text>
</g>
<!-- \\Chadicus\\Marvel\\Api\\Collection -->
<g id="node12" class="node"><title>\\Chadicus\\Marvel\\Api\\Collection</title>
<polygon fill="none" stroke="black" points="676.576,-274 592.576,-274 592.576,-238 676.576,-238 676.576,-274"/>
<text text-anchor="middle" x="634.576" y="-253.2" font-family="Courier,monospace" font-size="11.00">Collection</text>
</g>
<!-- \\Iterator -->
<g id="node18" class="node"><title>\\Iterator</title>
<ellipse fill="none" stroke="black" cx="375.788" cy="-72" rx="38.9931" ry="18"/>
<text text-anchor="middle" x="375.788" y="-68.3" font-family="Times,serif" font-size="14.00" fill="gray">\Iterator</text>
</g>
<!-- \\Chadicus\\Marvel\\Api\\Collection&#45;&gt;\\Iterator -->
<g id="edge2" class="edge"><title>\\Chadicus\\Marvel\\Api\\Collection&#45;&gt;\\Iterator</title>
<path fill="none" stroke="black" stroke-dasharray="1,5" d="M596.411,-237.94C592.519,-235.24 588.81,-232.256 585.576,-229 539.027,-182.144 566.946,-137.908 513.576,-99 488.141,-80.4578 453.254,-73.7862 425.079,-71.7099"/>
<polygon fill="none" stroke="black" points="425.214,-68.2121 415.032,-71.1394 424.818,-75.2008 425.214,-68.2121"/>
</g>
<!-- \\Countable -->
<g id="node19" class="node"><title>\\Countable</title>
<ellipse fill="none" stroke="black" cx="375.788" cy="-18" rx="49.2915" ry="18"/>
<text text-anchor="middle" x="375.788" y="-14.3" font-family="Times,serif" font-size="14.00" fill="gray">\Countable</text>
</g>
<!-- \\Chadicus\\Marvel\\Api\\Collection&#45;&gt;\\Countable -->
<g id="edge3" class="edge"><title>\\Chadicus\\Marvel\\Api\\Collection&#45;&gt;\\Countable</title>
<path fill="none" stroke="black" stroke-dasharray="1,5" d="M595.021,-237.65C591.565,-235.056 588.336,-232.175 585.576,-229 527.956,-162.731 580.947,-101.327 513.576,-45 491.921,-26.8959 461.615,-19.6825 435.03,-17.1946"/>
<polygon fill="none" stroke="black" points="435.28,-13.7036 425.05,-16.4597 434.766,-20.6847 435.28,-13.7036"/>
</g>
<!-- \\Chadicus\\Marvel\\Api\\ArrayCache -->
<g id="node13" class="node"><title>\\Chadicus\\Marvel\\Api\\ArrayCache</title>
<polygon fill="none" stroke="black" points="676.576,-778 592.576,-778 592.576,-742 676.576,-742 676.576,-778"/>
<text text-anchor="middle" x="634.576" y="-757.2" font-family="Courier,monospace" font-size="11.00">ArrayCache</text>
</g>
<!-- \\Chadicus\\Marvel\\Api\\ArrayCache&#45;&gt;\\Chadicus\\Marvel\\Api\\Cache -->
<g id="edge4" class="edge"><title>\\Chadicus\\Marvel\\Api\\ArrayCache&#45;&gt;\\Chadicus\\Marvel\\Api\\Cache</title>
<path fill="none" stroke="black" stroke-dasharray="1,5" d="M592.318,-768.676C542.655,-779.12 460.06,-796.489 412.842,-806.418"/>
<polygon fill="none" stroke="black" points="412.113,-802.995 403.047,-808.478 413.553,-809.845 412.113,-802.995"/>
</g>
<!-- \\Chadicus\\Marvel\\Api\\CurlAdapter -->
<g id="node14" class="node"><title>\\Chadicus\\Marvel\\Api\\CurlAdapter</title>
<polygon fill="none" stroke="black" points="680.076,-328 589.076,-328 589.076,-292 680.076,-292 680.076,-328"/>
<text text-anchor="middle" x="634.576" y="-307.2" font-family="Courier,monospace" font-size="11.00">CurlAdapter</text>
</g>
<!-- \\Chadicus\\Marvel\\Api\\Adapter -->
<g id="node17" class="node"><title>\\Chadicus\\Marvel\\Api\\Adapter</title>
<polygon fill="none" stroke="black" points="407.788,-328 343.788,-328 343.788,-292 407.788,-292 407.788,-328"/>
<text text-anchor="middle" x="375.788" y="-307.2" font-family="Courier,monospace" font-size="11.00">Adapter</text>
</g>
<!-- \\Chadicus\\Marvel\\Api\\CurlAdapter&#45;&gt;\\Chadicus\\Marvel\\Api\\Adapter -->
<g id="edge10" class="edge"><title>\\Chadicus\\Marvel\\Api\\CurlAdapter&#45;&gt;\\Chadicus\\Marvel\\Api\\Adapter</title>
<path fill="none" stroke="black" stroke-dasharray="1,5" d="M588.847,-310C540.754,-310 464.922,-310 418.167,-310"/>
<polygon fill="none" stroke="black" points="418.082,-306.5 408.082,-310 418.082,-313.5 418.082,-306.5"/>
</g>
<!-- \\Chadicus\\Marvel\\Api\\Request -->
<g id="node15" class="node"><title>\\Chadicus\\Marvel\\Api\\Request</title>
<polygon fill="none" stroke="black" points="666.576,-220 602.576,-220 602.576,-184 666.576,-184 666.576,-220"/>
<text text-anchor="middle" x="634.576" y="-199.2" font-family="Courier,monospace" font-size="11.00">Request</text>
</g>
</g>
</svg>
