<?xml version="1.0" encoding="UTF-8" standalone="no"?>
<!DOCTYPE svg PUBLIC "-//W3C//DTD SVG 1.1//EN"
 "http://www.w3.org/Graphics/SVG/1.1/DTD/svg11.dtd">
<!-- Generated by graphviz version 2.38.0 (20140413.2041)
 -->
<!-- Title: G Pages: 1 -->
<svg width="743pt" height="1670pt"
 viewBox="0.00 0.00 742.58 1670.00" xmlns="http://www.w3.org/2000/svg" xmlns:xlink="http://www.w3.org/1999/xlink">
<g id="graph0" class="graph" transform="scale(1 1) rotate(0) translate(4 1666)">
<title>G</title>
<polygon fill="white" stroke="none" points="-4,4 -4,-1666 738.576,-1666 738.576,4 -4,4"/>
<g id="clust1" class="cluster"><title>cluster_Global</title>
<path fill="none" stroke="gray" d="M20,-152C20,-152 714.576,-152 714.576,-152 720.576,-152 726.576,-158 726.576,-164 726.576,-164 726.576,-1642 726.576,-1642 726.576,-1648 720.576,-1654 714.576,-1654 714.576,-1654 20,-1654 20,-1654 14,-1654 8,-1648 8,-1642 8,-1642 8,-164 8,-164 8,-158 14,-152 20,-152"/>
<text text-anchor="middle" x="367.288" y="-1641.2" font-family="Times,serif" font-size="11.00" fill="gray">Global</text>
</g>
<g id="clust2" class="cluster"><title>cluster_\Chadicus</title>
<path fill="none" stroke="gray" d="M28,-160C28,-160 706.576,-160 706.576,-160 712.576,-160 718.576,-166 718.576,-172 718.576,-172 718.576,-1614 718.576,-1614 718.576,-1620 712.576,-1626 706.576,-1626 706.576,-1626 28,-1626 28,-1626 22,-1626 16,-1620 16,-1614 16,-1614 16,-172 16,-172 16,-166 22,-160 28,-160"/>
<text text-anchor="middle" x="367.288" y="-1613.2" font-family="Times,serif" font-size="11.00" fill="gray">Chadicus</text>
</g>
<g id="clust3" class="cluster"><title>cluster_\Chadicus\Marvel</title>
<path fill="none" stroke="gray" d="M36,-168C36,-168 698.576,-168 698.576,-168 704.576,-168 710.576,-174 710.576,-180 710.576,-180 710.576,-1586 710.576,-1586 710.576,-1592 704.576,-1598 698.576,-1598 698.576,-1598 36,-1598 36,-1598 30,-1598 24,-1592 24,-1586 24,-1586 24,-180 24,-180 24,-174 30,-168 36,-168"/>
<text text-anchor="middle" x="367.288" y="-1585.2" font-family="Times,serif" font-size="11.00" fill="gray">Marvel</text>
</g>
<g id="clust4" class="cluster"><title>cluster_\Chadicus\Marvel\Api</title>
<path fill="none" stroke="gray" d="M44,-176C44,-176 690.576,-176 690.576,-176 696.576,-176 702.576,-182 702.576,-188 702.576,-188 702.576,-1558 702.576,-1558 702.576,-1564 696.576,-1570 690.576,-1570 690.576,-1570 44,-1570 44,-1570 38,-1570 32,-1564 32,-1558 32,-1558 32,-188 32,-188 32,-182 38,-176 44,-176"/>
<text text-anchor="middle" x="367.288" y="-1557.2" font-family="Times,serif" font-size="11.00" fill="gray">Api</text>
</g>
<g id="clust5" class="cluster"><title>cluster_\Chadicus\Marvel\Api\Cache</title>
<path fill="none" stroke="gray" d="M55.5,-1416C55.5,-1416 675.576,-1416 675.576,-1416 681.576,-1416 687.576,-1422 687.576,-1428 687.576,-1428 687.576,-1530 687.576,-1530 687.576,-1536 681.576,-1542 675.576,-1542 675.576,-1542 55.5,-1542 55.5,-1542 49.5,-1542 43.5,-1536 43.5,-1530 43.5,-1530 43.5,-1428 43.5,-1428 43.5,-1422 49.5,-1416 55.5,-1416"/>
<text text-anchor="middle" x="365.538" y="-1529.2" font-family="Times,serif" font-size="11.00" fill="gray">Cache</text>
</g>
<g id="clust6" class="cluster"><title>cluster_\Chadicus\Marvel\Api\Entities</title>
<path fill="none" stroke="gray" d="M52,-634C52,-634 682.576,-634 682.576,-634 688.576,-634 694.576,-640 694.576,-646 694.576,-646 694.576,-1396 694.576,-1396 694.576,-1402 688.576,-1408 682.576,-1408 682.576,-1408 52,-1408 52,-1408 46,-1408 40,-1402 40,-1396 40,-1396 40,-646 40,-646 40,-640 46,-634 52,-634"/>
<text text-anchor="middle" x="367.288" y="-1395.2" font-family="Times,serif" font-size="11.00" fill="gray">Entities</text>
</g>
<g id="clust7" class="cluster"><title>cluster_\Chadicus\Marvel\Api\Adapter</title>
<path fill="none" stroke="gray" d="M317.288,-554C317.288,-554 679.076,-554 679.076,-554 685.076,-554 691.076,-560 691.076,-566 691.076,-566 691.076,-614 691.076,-614 691.076,-620 685.076,-626 679.076,-626 679.076,-626 317.288,-626 317.288,-626 311.288,-626 305.288,-620 305.288,-614 305.288,-614 305.288,-566 305.288,-566 305.288,-560 311.288,-554 317.288,-554"/>
<text text-anchor="middle" x="498.182" y="-613.2" font-family="Times,serif" font-size="11.00" fill="gray">Adapter</text>
</g>
<!-- \\Chadicus\\Marvel\\Api\\Cache\\MongoCache -->
<g id="node1" class="node"><title>\\Chadicus\\Marvel\\Api\\Cache\\MongoCache</title>
<polygon fill="none" stroke="black" points="679.576,-1514 595.576,-1514 595.576,-1478 679.576,-1478 679.576,-1514"/>
<text text-anchor="middle" x="637.576" y="-1493.2" font-family="Courier,monospace" font-size="11.00">MongoCache</text>
</g>
<!-- \\Chadicus\\Marvel\\Api\\Cache\\AbstractCache -->
<g id="node3" class="node"><title>\\Chadicus\\Marvel\\Api\\Cache\\AbstractCache</title>
<polygon fill="none" stroke="black" points="427.788,-1487 323.788,-1487 323.788,-1451 427.788,-1451 427.788,-1487"/>
<text text-anchor="start" x="341.788" y="-1472.2" font-family="Courier,monospace" font-size="11.00">«abstract»</text>
<text text-anchor="start" x="331.788" y="-1460.2" font-family="Courier,monospace" font-size="11.00">AbstractCache</text>
</g>
<!-- \\Chadicus\\Marvel\\Api\\Cache\\MongoCache&#45;&gt;\\Chadicus\\Marvel\\Api\\Cache\\AbstractCache -->
<g id="edge1" class="edge"><title>\\Chadicus\\Marvel\\Api\\Cache\\MongoCache&#45;&gt;\\Chadicus\\Marvel\\Api\\Cache\\AbstractCache</title>
<path fill="none" stroke="black" d="M595.411,-1491.72C553.069,-1487.32 486.632,-1480.42 438.101,-1475.37"/>
<polygon fill="none" stroke="black" points="438.341,-1471.88 428.032,-1474.33 437.617,-1478.84 438.341,-1471.88"/>
</g>
<!-- \\Chadicus\\Marvel\\Api\\Cache\\CacheInterface -->
<g id="node4" class="node"><title>\\Chadicus\\Marvel\\Api\\Cache\\CacheInterface</title>
<polygon fill="none" stroke="black" points="162.5,-1487 51.5,-1487 51.5,-1451 162.5,-1451 162.5,-1487"/>
<text text-anchor="middle" x="107" y="-1466.2" font-family="Courier,monospace" font-size="11.00">CacheInterface</text>
</g>
<!-- \\Chadicus\\Marvel\\Api\\Cache\\MongoCache&#45;&gt;\\Chadicus\\Marvel\\Api\\Cache\\CacheInterface -->
<g id="edge2" class="edge"><title>\\Chadicus\\Marvel\\Api\\Cache\\MongoCache&#45;&gt;\\Chadicus\\Marvel\\Api\\Cache\\CacheInterface</title>
<path fill="none" stroke="black" stroke-dasharray="1,5" d="M595.409,-1498.76C522.935,-1503.01 367.926,-1509.35 238,-1496 216.521,-1493.79 193.355,-1489.59 172.613,-1485.14"/>
<polygon fill="none" stroke="black" points="173.161,-1481.68 162.643,-1482.94 171.656,-1488.51 173.161,-1481.68"/>
</g>
<!-- \\Chadicus\\Marvel\\Api\\Cache\\ArrayCache -->
<g id="node2" class="node"><title>\\Chadicus\\Marvel\\Api\\Cache\\ArrayCache</title>
<polygon fill="none" stroke="black" points="679.576,-1460 595.576,-1460 595.576,-1424 679.576,-1424 679.576,-1460"/>
<text text-anchor="middle" x="637.576" y="-1439.2" font-family="Courier,monospace" font-size="11.00">ArrayCache</text>
</g>
<!-- \\Chadicus\\Marvel\\Api\\Cache\\ArrayCache&#45;&gt;\\Chadicus\\Marvel\\Api\\Cache\\AbstractCache -->
<g id="edge3" class="edge"><title>\\Chadicus\\Marvel\\Api\\Cache\\ArrayCache&#45;&gt;\\Chadicus\\Marvel\\Api\\Cache\\AbstractCache</title>
<path fill="none" stroke="black" d="M595.411,-1446.28C553.069,-1450.68 486.632,-1457.58 438.101,-1462.63"/>
<polygon fill="none" stroke="black" points="437.617,-1459.16 428.032,-1463.67 438.341,-1466.12 437.617,-1459.16"/>
</g>
<!-- \\Chadicus\\Marvel\\Api\\Cache\\ArrayCache&#45;&gt;\\Chadicus\\Marvel\\Api\\Cache\\CacheInterface -->
<g id="edge4" class="edge"><title>\\Chadicus\\Marvel\\Api\\Cache\\ArrayCache&#45;&gt;\\Chadicus\\Marvel\\Api\\Cache\\CacheInterface</title>
<path fill="none" stroke="black" stroke-dasharray="1,5" d="M595.409,-1439.24C522.935,-1434.99 367.926,-1428.65 238,-1442 216.521,-1444.21 193.355,-1448.41 172.613,-1452.86"/>
<polygon fill="none" stroke="black" points="171.656,-1449.49 162.643,-1455.06 173.161,-1456.32 171.656,-1449.49"/>
</g>
<!-- \\Chadicus\\Marvel\\Api\\Cache\\AbstractCache&#45;&gt;\\Chadicus\\Marvel\\Api\\Cache\\CacheInterface -->
<g id="edge5" class="edge"><title>\\Chadicus\\Marvel\\Api\\Cache\\AbstractCache&#45;&gt;\\Chadicus\\Marvel\\Api\\Cache\\CacheInterface</title>
<path fill="none" stroke="black" stroke-dasharray="1,5" d="M323.664,-1469C280.762,-1469 219.232,-1469 172.867,-1469"/>
<polygon fill="none" stroke="black" points="172.622,-1465.5 162.622,-1469 172.622,-1472.5 172.622,-1465.5"/>
</g>
<!-- \\Chadicus\\Marvel\\Api\\Entities\\ImageVariant -->
<g id="node5" class="node"><title>\\Chadicus\\Marvel\\Api\\Entities\\ImageVariant</title>
<polygon fill="none" stroke="black" points="686.576,-678 588.576,-678 588.576,-642 686.576,-642 686.576,-678"/>
<text text-anchor="middle" x="637.576" y="-657.2" font-family="Courier,monospace" font-size="11.00">ImageVariant</text>
</g>
<!-- \\Chadicus\\Spl\\Types\\AbstractEnum -->
<g id="node32" class="node"><title>\\Chadicus\\Spl\\Types\\AbstractEnum</title>
<ellipse fill="none" stroke="black" cx="375.788" cy="-126" rx="137.576" ry="18"/>
<text text-anchor="middle" x="375.788" y="-122.3" font-family="Times,serif" font-size="14.00" fill="gray">\Chadicus\Spl\Types\AbstractEnum</text>
</g>
<!-- \\Chadicus\\Marvel\\Api\\Entities\\ImageVariant&#45;&gt;\\Chadicus\\Spl\\Types\\AbstractEnum -->
<g id="edge8" class="edge"><title>\\Chadicus\\Marvel\\Api\\Entities\\ImageVariant&#45;&gt;\\Chadicus\\Spl\\Types\\AbstractEnum</title>
<path fill="none" stroke="black" d="M599.26,-641.989C594.242,-638.494 589.486,-634.495 585.576,-630 454.866,-479.733 398.016,-236.268 381.88,-154.103"/>
<polygon fill="none" stroke="black" points="385.311,-153.411 379.99,-144.249 378.436,-154.73 385.311,-153.411"/>
</g>
<!-- \\Chadicus\\Marvel\\Api\\Entities\\Character -->
<g id="node6" class="node"><title>\\Chadicus\\Marvel\\Api\\Entities\\Character</title>
<polygon fill="none" stroke="black" points="676.076,-1272 599.076,-1272 599.076,-1236 676.076,-1236 676.076,-1272"/>
<text text-anchor="middle" x="637.576" y="-1251.2" font-family="Courier,monospace" font-size="11.00">Character</text>
</g>
<!-- \\Chadicus\\Marvel\\Api\\Entities\\AbstractEntity -->
<g id="node12" class="node"><title>\\Chadicus\\Marvel\\Api\\Entities\\AbstractEntity</title>
<polygon fill="none" stroke="black" points="431.288,-1029 320.288,-1029 320.288,-993 431.288,-993 431.288,-1029"/>
<text text-anchor="start" x="341.788" y="-1014.2" font-family="Courier,monospace" font-size="11.00">«abstract»</text>
<text text-anchor="start" x="328.288" y="-1002.2" font-family="Courier,monospace" font-size="11.00">AbstractEntity</text>
</g>
<!-- \\Chadicus\\Marvel\\Api\\Entities\\Character&#45;&gt;\\Chadicus\\Marvel\\Api\\Entities\\AbstractEntity -->
<g id="edge9" class="edge"><title>\\Chadicus\\Marvel\\Api\\Entities\\Character&#45;&gt;\\Chadicus\\Marvel\\Api\\Entities\\AbstractEntity</title>
<path fill="none" stroke="black" d="M598.966,-1235.85C594.316,-1233.1 589.74,-1230.13 585.576,-1227 507.8,-1168.53 432.499,-1080.57 397.371,-1037.15"/>
<polygon fill="none" stroke="black" points="399.883,-1034.69 390.892,-1029.08 394.425,-1039.07 399.883,-1034.69"/>
</g>
<!-- \\Chadicus\\Marvel\\Api\\Entities\\Creator -->
<g id="node7" class="node"><title>\\Chadicus\\Marvel\\Api\\Entities\\Creator</title>
<polygon fill="none" stroke="black" points="669.576,-1218 605.576,-1218 605.576,-1182 669.576,-1182 669.576,-1218"/>
<text text-anchor="middle" x="637.576" y="-1197.2" font-family="Courier,monospace" font-size="11.00">Creator</text>
</g>
<!-- \\Chadicus\\Marvel\\Api\\Entities\\Creator&#45;&gt;\\Chadicus\\Marvel\\Api\\Entities\\AbstractEntity -->
<g id="edge10" class="edge"><title>\\Chadicus\\Marvel\\Api\\Entities\\Creator&#45;&gt;\\Chadicus\\Marvel\\Api\\Entities\\AbstractEntity</title>
<path fill="none" stroke="black" d="M605.34,-1184.56C598.692,-1180.97 591.804,-1177.02 585.576,-1173 517.749,-1129.2 444.509,-1069.06 405.351,-1035.75"/>
<polygon fill="none" stroke="black" points="407.403,-1032.9 397.527,-1029.06 402.855,-1038.22 407.403,-1032.9"/>
</g>
<!-- \\Chadicus\\Marvel\\Api\\Entities\\Event -->
<g id="node8" class="node"><title>\\Chadicus\\Marvel\\Api\\Entities\\Event</title>
<polygon fill="none" stroke="black" points="664.576,-1164 610.576,-1164 610.576,-1128 664.576,-1128 664.576,-1164"/>
<text text-anchor="middle" x="637.576" y="-1143.2" font-family="Courier,monospace" font-size="11.00">Event</text>
</g>
<!-- \\Chadicus\\Marvel\\Api\\Entities\\Event&#45;&gt;\\Chadicus\\Marvel\\Api\\Entities\\AbstractEntity -->
<g id="edge11" class="edge"><title>\\Chadicus\\Marvel\\Api\\Entities\\Event&#45;&gt;\\Chadicus\\Marvel\\Api\\Entities\\AbstractEntity</title>
<path fill="none" stroke="black" d="M610.236,-1132.31C565.728,-1109.18 475.188,-1062.13 420.872,-1033.91"/>
<polygon fill="none" stroke="black" points="422.312,-1030.71 411.825,-1029.21 419.084,-1036.92 422.312,-1030.71"/>
</g>
<!-- \\Chadicus\\Marvel\\Api\\Entities\\Url -->
<g id="node9" class="node"><title>\\Chadicus\\Marvel\\Api\\Entities\\Url</title>
<polygon fill="none" stroke="black" points="664.576,-1110 610.576,-1110 610.576,-1074 664.576,-1074 664.576,-1110"/>
<text text-anchor="middle" x="637.576" y="-1089.2" font-family="Courier,monospace" font-size="11.00">Url</text>
</g>
<!-- \\Chadicus\\Marvel\\Api\\Entities\\Url&#45;&gt;\\Chadicus\\Marvel\\Api\\Entities\\AbstractEntity -->
<g id="edge12" class="edge"><title>\\Chadicus\\Marvel\\Api\\Entities\\Url&#45;&gt;\\Chadicus\\Marvel\\Api\\Entities\\AbstractEntity</title>
<path fill="none" stroke="black" d="M610.236,-1083.79C570.87,-1071.51 495.494,-1048.01 441.021,-1031.03"/>
<polygon fill="none" stroke="black" points="442.036,-1027.68 431.448,-1028.04 439.953,-1034.36 442.036,-1027.68"/>
</g>
<!-- \\Chadicus\\Marvel\\Api\\Entities\\ResourceList -->
<g id="node10" class="node"><title>\\Chadicus\\Marvel\\Api\\Entities\\ResourceList</title>
<polygon fill="none" stroke="black" points="686.576,-1056 588.576,-1056 588.576,-1020 686.576,-1020 686.576,-1056"/>
<text text-anchor="middle" x="637.576" y="-1035.2" font-family="Courier,monospace" font-size="11.00">ResourceList</text>
</g>
<!-- \\Chadicus\\Marvel\\Api\\Entities\\ResourceList&#45;&gt;\\Chadicus\\Marvel\\Api\\Entities\\AbstractEntity -->
<g id="edge13" class="edge"><title>\\Chadicus\\Marvel\\Api\\Entities\\ResourceList&#45;&gt;\\Chadicus\\Marvel\\Api\\Entities\\AbstractEntity</title>
<path fill="none" stroke="black" d="M588.32,-1032.98C546.986,-1028.69 487.102,-1022.47 441.593,-1017.74"/>
<polygon fill="none" stroke="black" points="441.837,-1014.24 431.529,-1016.69 441.113,-1021.2 441.837,-1014.24"/>
</g>
<!-- \\Chadicus\\Marvel\\Api\\Entities\\Date -->
<g id="node11" class="node"><title>\\Chadicus\\Marvel\\Api\\Entities\\Date</title>
<polygon fill="none" stroke="black" points="664.576,-1002 610.576,-1002 610.576,-966 664.576,-966 664.576,-1002"/>
<text text-anchor="middle" x="637.576" y="-981.2" font-family="Courier,monospace" font-size="11.00">Date</text>
</g>
<!-- \\Chadicus\\Marvel\\Api\\Entities\\Date&#45;&gt;\\Chadicus\\Marvel\\Api\\Entities\\AbstractEntity -->
<g id="edge14" class="edge"><title>\\Chadicus\\Marvel\\Api\\Entities\\Date&#45;&gt;\\Chadicus\\Marvel\\Api\\Entities\\AbstractEntity</title>
<path fill="none" stroke="black" d="M610.236,-986.737C571.033,-990.812 496.117,-998.598 441.699,-1004.25"/>
<polygon fill="none" stroke="black" points="441.032,-1000.8 431.448,-1005.32 441.756,-1007.77 441.032,-1000.8"/>
</g>
<!-- \\Chadicus\\Marvel\\Api\\Entities\\EntityInterface -->
<g id="node20" class="node"><title>\\Chadicus\\Marvel\\Api\\Entities\\EntityInterface</title>
<polygon fill="none" stroke="black" points="166,-1029 48,-1029 48,-993 166,-993 166,-1029"/>
<text text-anchor="middle" x="107" y="-1008.2" font-family="Courier,monospace" font-size="11.00">EntityInterface</text>
</g>
<!-- \\Chadicus\\Marvel\\Api\\Entities\\AbstractEntity&#45;&gt;\\Chadicus\\Marvel\\Api\\Entities\\EntityInterface -->
<g id="edge15" class="edge"><title>\\Chadicus\\Marvel\\Api\\Entities\\AbstractEntity&#45;&gt;\\Chadicus\\Marvel\\Api\\Entities\\EntityInterface</title>
<path fill="none" stroke="black" stroke-dasharray="1,5" d="M320.156,-1011C278.575,-1011 221.088,-1011 176.442,-1011"/>
<polygon fill="none" stroke="black" points="176.257,-1007.5 166.257,-1011 176.257,-1014.5 176.257,-1007.5"/>
</g>
<!-- \\ArrayAccess -->
<g id="node33" class="node"><title>\\ArrayAccess</title>
<ellipse fill="none" stroke="black" cx="107" cy="-126" rx="58.4896" ry="18"/>
<text text-anchor="middle" x="107" y="-122.3" font-family="Times,serif" font-size="14.00" fill="gray">\ArrayAccess</text>
</g>
<!-- \\Chadicus\\Marvel\\Api\\Entities\\AbstractEntity&#45;&gt;\\ArrayAccess -->
<g id="edge16" class="edge"><title>\\Chadicus\\Marvel\\Api\\Entities\\AbstractEntity&#45;&gt;\\ArrayAccess</title>
<path fill="none" stroke="black" stroke-dasharray="1,5" d="M367.637,-992.959C346.26,-938.654 281.619,-771.73 238,-630 182.785,-450.592 131.58,-230.489 114.234,-153.864"/>
<polygon fill="none" stroke="black" points="117.629,-153.008 112.014,-144.023 110.8,-154.548 117.629,-153.008"/>
</g>
<!-- \\Chadicus\\Marvel\\Api\\Entities\\Series -->
<g id="node13" class="node"><title>\\Chadicus\\Marvel\\Api\\Entities\\Series</title>
<polygon fill="none" stroke="black" points="666.076,-948 609.076,-948 609.076,-912 666.076,-912 666.076,-948"/>
<text text-anchor="middle" x="637.576" y="-927.2" font-family="Courier,monospace" font-size="11.00">Series</text>
</g>
<!-- \\Chadicus\\Marvel\\Api\\Entities\\Series&#45;&gt;\\Chadicus\\Marvel\\Api\\Entities\\AbstractEntity -->
<g id="edge17" class="edge"><title>\\Chadicus\\Marvel\\Api\\Entities\\Series&#45;&gt;\\Chadicus\\Marvel\\Api\\Entities\\AbstractEntity</title>
<path fill="none" stroke="black" d="M608.774,-938.668C569.095,-951.04 495.082,-974.117 441.299,-990.886"/>
<polygon fill="none" stroke="black" points="440.01,-987.621 431.505,-993.939 442.094,-994.304 440.01,-987.621"/>
</g>
<!-- \\Chadicus\\Marvel\\Api\\Entities\\Summary -->
<g id="node14" class="node"><title>\\Chadicus\\Marvel\\Api\\Entities\\Summary</title>
<polygon fill="none" stroke="black" points="669.576,-894 605.576,-894 605.576,-858 669.576,-858 669.576,-894"/>
<text text-anchor="middle" x="637.576" y="-873.2" font-family="Courier,monospace" font-size="11.00">Summary</text>
</g>
<!-- \\Chadicus\\Marvel\\Api\\Entities\\Summary&#45;&gt;\\Chadicus\\Marvel\\Api\\Entities\\AbstractEntity -->
<g id="edge18" class="edge"><title>\\Chadicus\\Marvel\\Api\\Entities\\Summary&#45;&gt;\\Chadicus\\Marvel\\Api\\Entities\\AbstractEntity</title>
<path fill="none" stroke="black" d="M605.497,-892.15C559.505,-916.05 473.119,-960.941 420.684,-988.189"/>
<polygon fill="none" stroke="black" points="418.882,-985.181 411.623,-992.898 422.11,-991.392 418.882,-985.181"/>
</g>
<!-- \\Chadicus\\Marvel\\Api\\Entities\\Story -->
<g id="node15" class="node"><title>\\Chadicus\\Marvel\\Api\\Entities\\Story</title>
<polygon fill="none" stroke="black" points="664.576,-840 610.576,-840 610.576,-804 664.576,-804 664.576,-840"/>
<text text-anchor="middle" x="637.576" y="-819.2" font-family="Courier,monospace" font-size="11.00">Story</text>
</g>
<!-- \\Chadicus\\Marvel\\Api\\Entities\\Story&#45;&gt;\\Chadicus\\Marvel\\Api\\Entities\\AbstractEntity -->
<g id="edge19" class="edge"><title>\\Chadicus\\Marvel\\Api\\Entities\\Story&#45;&gt;\\Chadicus\\Marvel\\Api\\Entities\\AbstractEntity</title>
<path fill="none" stroke="black" d="M610.397,-834.752C602.273,-839 593.403,-843.946 585.576,-849 517.749,-892.8 444.509,-952.936 405.351,-986.25"/>
<polygon fill="none" stroke="black" points="402.855,-983.779 397.527,-992.936 407.403,-989.101 402.855,-983.779"/>
</g>
<!-- \\Chadicus\\Marvel\\Api\\Entities\\Image -->
<g id="node16" class="node"><title>\\Chadicus\\Marvel\\Api\\Entities\\Image</title>
<polygon fill="none" stroke="black" points="664.576,-786 610.576,-786 610.576,-750 664.576,-750 664.576,-786"/>
<text text-anchor="middle" x="637.576" y="-765.2" font-family="Courier,monospace" font-size="11.00">Image</text>
</g>
<!-- \\Chadicus\\Marvel\\Api\\Entities\\Image&#45;&gt;\\Chadicus\\Marvel\\Api\\Entities\\AbstractEntity -->
<g id="edge20" class="edge"><title>\\Chadicus\\Marvel\\Api\\Entities\\Image&#45;&gt;\\Chadicus\\Marvel\\Api\\Entities\\AbstractEntity</title>
<path fill="none" stroke="black" d="M610.46,-779.819C602.168,-784.088 593.183,-789.281 585.576,-795 507.8,-853.47 432.499,-941.434 397.371,-984.852"/>
<polygon fill="none" stroke="black" points="394.425,-982.931 390.892,-992.919 399.883,-987.314 394.425,-982.931"/>
</g>
<!-- \\Chadicus\\Marvel\\Api\\Entities\\TextObject -->
<g id="node17" class="node"><title>\\Chadicus\\Marvel\\Api\\Entities\\TextObject</title>
<polygon fill="none" stroke="black" points="679.576,-732 595.576,-732 595.576,-696 679.576,-696 679.576,-732"/>
<text text-anchor="middle" x="637.576" y="-711.2" font-family="Courier,monospace" font-size="11.00">TextObject</text>
</g>
<!-- \\Chadicus\\Marvel\\Api\\Entities\\TextObject&#45;&gt;\\Chadicus\\Marvel\\Api\\Entities\\AbstractEntity -->
<g id="edge21" class="edge"><title>\\Chadicus\\Marvel\\Api\\Entities\\TextObject&#45;&gt;\\Chadicus\\Marvel\\Api\\Entities\\AbstractEntity</title>
<path fill="none" stroke="black" d="M598.096,-732.046C593.688,-734.778 589.408,-737.774 585.576,-741 497.696,-814.979 423.183,-931.747 392.187,-984.075"/>
<polygon fill="none" stroke="black" points="389.122,-982.383 387.081,-992.78 395.16,-985.925 389.122,-982.383"/>
</g>
<!-- \\Chadicus\\Marvel\\Api\\Entities\\Comic -->
<g id="node18" class="node"><title>\\Chadicus\\Marvel\\Api\\Entities\\Comic</title>
<polygon fill="none" stroke="black" points="664.576,-1380 610.576,-1380 610.576,-1344 664.576,-1344 664.576,-1380"/>
<text text-anchor="middle" x="637.576" y="-1359.2" font-family="Courier,monospace" font-size="11.00">Comic</text>
</g>
<!-- \\Chadicus\\Marvel\\Api\\Entities\\Comic&#45;&gt;\\Chadicus\\Marvel\\Api\\Entities\\AbstractEntity -->
<g id="edge22" class="edge"><title>\\Chadicus\\Marvel\\Api\\Entities\\Comic&#45;&gt;\\Chadicus\\Marvel\\Api\\Entities\\AbstractEntity</title>
<path fill="none" stroke="black" d="M610.54,-1351.43C601.977,-1347.15 592.808,-1341.64 585.576,-1335 487.276,-1244.77 415.439,-1098.53 388.478,-1038.28"/>
<polygon fill="none" stroke="black" points="391.639,-1036.77 384.396,-1029.04 385.236,-1039.6 391.639,-1036.77"/>
</g>
<!-- \\Chadicus\\Marvel\\Api\\Entities\\Price -->
<g id="node19" class="node"><title>\\Chadicus\\Marvel\\Api\\Entities\\Price</title>
<polygon fill="none" stroke="black" points="664.576,-1326 610.576,-1326 610.576,-1290 664.576,-1290 664.576,-1326"/>
<text text-anchor="middle" x="637.576" y="-1305.2" font-family="Courier,monospace" font-size="11.00">Price</text>
</g>
<!-- \\Chadicus\\Marvel\\Api\\Entities\\Price&#45;&gt;\\Chadicus\\Marvel\\Api\\Entities\\AbstractEntity -->
<g id="edge23" class="edge"><title>\\Chadicus\\Marvel\\Api\\Entities\\Price&#45;&gt;\\Chadicus\\Marvel\\Api\\Entities\\AbstractEntity</title>
<path fill="none" stroke="black" d="M610.335,-1296.8C601.945,-1292.54 592.933,-1287.19 585.576,-1281 497.696,-1207.02 423.183,-1090.25 392.187,-1037.93"/>
<polygon fill="none" stroke="black" points="395.16,-1036.08 387.081,-1029.22 389.122,-1039.62 395.16,-1036.08"/>
</g>
<!-- \\Chadicus\\Marvel\\Api\\Adapter\\CurlAdapter -->
<g id="node21" class="node"><title>\\Chadicus\\Marvel\\Api\\Adapter\\CurlAdapter</title>
<polygon fill="none" stroke="black" points="683.076,-598 592.076,-598 592.076,-562 683.076,-562 683.076,-598"/>
<text text-anchor="middle" x="637.576" y="-577.2" font-family="Courier,monospace" font-size="11.00">CurlAdapter</text>
</g>
<!-- \\Chadicus\\Marvel\\Api\\Adapter\\AdapterInterface -->
<g id="node22" class="node"><title>\\Chadicus\\Marvel\\Api\\Adapter\\AdapterInterface</title>
<polygon fill="none" stroke="black" points="438.288,-598 313.288,-598 313.288,-562 438.288,-562 438.288,-598"/>
<text text-anchor="middle" x="375.788" y="-577.2" font-family="Courier,monospace" font-size="11.00">AdapterInterface</text>
</g>
<!-- \\Chadicus\\Marvel\\Api\\Adapter\\CurlAdapter&#45;&gt;\\Chadicus\\Marvel\\Api\\Adapter\\AdapterInterface -->
<g id="edge24" class="edge"><title>\\Chadicus\\Marvel\\Api\\Adapter\\CurlAdapter&#45;&gt;\\Chadicus\\Marvel\\Api\\Adapter\\AdapterInterface</title>
<path fill="none" stroke="black" stroke-dasharray="1,5" d="M591.916,-580C552.534,-580 494.435,-580 448.539,-580"/>
<polygon fill="none" stroke="black" points="448.349,-576.5 438.349,-580 448.349,-583.5 448.349,-576.5"/>
</g>
<!-- \\Chadicus\\Marvel\\Api\\Client -->
<g id="node23" class="node"><title>\\Chadicus\\Marvel\\Api\\Client</title>
<polygon fill="none" stroke="black" points="666.076,-544 609.076,-544 609.076,-508 666.076,-508 666.076,-544"/>
<text text-anchor="middle" x="637.576" y="-523.2" font-family="Courier,monospace" font-size="11.00">Client</text>
</g>
<!-- \\Chadicus\\Marvel\\Api\\Response -->
<g id="node24" class="node"><title>\\Chadicus\\Marvel\\Api\\Response</title>
<polygon fill="none" stroke="black" points="673.076,-490 602.076,-490 602.076,-454 673.076,-454 673.076,-490"/>
<text text-anchor="middle" x="637.576" y="-469.2" font-family="Courier,monospace" font-size="11.00">Response</text>
</g>
<!-- \\Chadicus\\Marvel\\Api\\Collection -->
<g id="node25" class="node"><title>\\Chadicus\\Marvel\\Api\\Collection</title>
<polygon fill="none" stroke="black" points="679.576,-436 595.576,-436 595.576,-400 679.576,-400 679.576,-436"/>
<text text-anchor="middle" x="637.576" y="-415.2" font-family="Courier,monospace" font-size="11.00">Collection</text>
</g>
<!-- \\Iterator -->
<g id="node30" class="node"><title>\\Iterator</title>
<ellipse fill="none" stroke="black" cx="375.788" cy="-72" rx="38.9931" ry="18"/>
<text text-anchor="middle" x="375.788" y="-68.3" font-family="Times,serif" font-size="14.00" fill="gray">\Iterator</text>
</g>
<!-- \\Chadicus\\Marvel\\Api\\Collection&#45;&gt;\\Iterator -->
<g id="edge6" class="edge"><title>\\Chadicus\\Marvel\\Api\\Collection&#45;&gt;\\Iterator</title>
<path fill="none" stroke="black" stroke-dasharray="1,5" d="M595.158,-400.267C591.575,-397.553 588.288,-394.475 585.576,-391 503.325,-285.638 610.28,-191.274 513.576,-99 490.155,-76.6527 453.876,-70.2854 424.563,-69.3008"/>
<polygon fill="none" stroke="black" points="424.566,-65.8006 414.518,-69.1597 424.468,-72.7999 424.566,-65.8006"/>
</g>
<!-- \\Countable -->
<g id="node31" class="node"><title>\\Countable</title>
<ellipse fill="none" stroke="black" cx="375.788" cy="-18" rx="49.2915" ry="18"/>
<text text-anchor="middle" x="375.788" y="-14.3" font-family="Times,serif" font-size="14.00" fill="gray">\Countable</text>
</g>
<!-- \\Chadicus\\Marvel\\Api\\Collection&#45;&gt;\\Countable -->
<g id="edge7" class="edge"><title>\\Chadicus\\Marvel\\Api\\Collection&#45;&gt;\\Countable</title>
<path fill="none" stroke="black" stroke-dasharray="1,5" d="M595.513,-400.739C591.765,-397.916 588.344,-394.684 585.576,-391 491.203,-265.44 625.212,-155.494 513.576,-45 493.134,-24.7672 462.2,-17.4997 434.917,-15.5206"/>
<polygon fill="none" stroke="black" points="434.832,-12.012 424.669,-15.005 434.481,-19.0032 434.832,-12.012"/>
</g>
<!-- \\Chadicus\\Marvel\\Api\\Filterer -->
<g id="node26" class="node"><title>\\Chadicus\\Marvel\\Api\\Filterer</title>
<polygon fill="none" stroke="black" points="679.576,-382 595.576,-382 595.576,-346 679.576,-346 679.576,-382"/>
<text text-anchor="start" x="603.576" y="-367.2" font-family="Courier,monospace" font-size="11.00">«abstract»</text>
<text text-anchor="start" x="610.076" y="-355.2" font-family="Courier,monospace" font-size="11.00">Filterer</text>
</g>
<!-- \\Chadicus\\Marvel\\Api\\Request -->
<g id="node27" class="node"><title>\\Chadicus\\Marvel\\Api\\Request</title>
<polygon fill="none" stroke="black" points="669.576,-328 605.576,-328 605.576,-292 669.576,-292 669.576,-328"/>
<text text-anchor="middle" x="637.576" y="-307.2" font-family="Courier,monospace" font-size="11.00">Request</text>
</g>
<!-- \\Chadicus\\Marvel\\Api\\DataWrapper -->
<g id="node28" class="node"><title>\\Chadicus\\Marvel\\Api\\DataWrapper</title>
<polygon fill="none" stroke="black" points="683.076,-274 592.076,-274 592.076,-238 683.076,-238 683.076,-274"/>
<text text-anchor="middle" x="637.576" y="-253.2" font-family="Courier,monospace" font-size="11.00">DataWrapper</text>
</g>
<!-- \\Chadicus\\Marvel\\Api\\DataContainer -->
<g id="node29" class="node"><title>\\Chadicus\\Marvel\\Api\\DataContainer</title>
<polygon fill="none" stroke="black" points="689.576,-220 585.576,-220 585.576,-184 689.576,-184 689.576,-220"/>
<text text-anchor="middle" x="637.576" y="-199.2" font-family="Courier,monospace" font-size="11.00">DataContainer</text>
</g>
</g>
</svg>
