<?xml version="1.0" encoding="UTF-8" standalone="no"?>
<!DOCTYPE svg PUBLIC "-//W3C//DTD SVG 1.1//EN"
 "http://www.w3.org/Graphics/SVG/1.1/DTD/svg11.dtd">
<!-- Generated by graphviz version 2.26.3 (20100126.1600)
 -->
<!-- Title: G Pages: 1 -->
<svg width="337pt" height="572pt"
 viewBox="0.00 0.00 337.00 572.00" xmlns="http://www.w3.org/2000/svg" xmlns:xlink="http://www.w3.org/1999/xlink">
<g id="graph1" class="graph" transform="scale(1 1) rotate(0) translate(4 568)">
<title>G</title>
<polygon fill="white" stroke="white" points="-4,5 -4,-568 334,-568 334,5 -4,5"/>
<g id="graph2" class="cluster"><title>cluster_Global</title>
<polyline fill="none" stroke="gray" points="20,-98 309,-98 "/>
<path fill="none" stroke="gray" d="M309,-98C315,-98 321,-104 321,-110"/>
<polyline fill="none" stroke="gray" points="321,-110 321,-544 "/>
<path fill="none" stroke="gray" d="M321,-544C321,-550 315,-556 309,-556"/>
<polyline fill="none" stroke="gray" points="309,-556 20,-556 "/>
<path fill="none" stroke="gray" d="M20,-556C14,-556 8,-550 8,-544"/>
<polyline fill="none" stroke="gray" points="8,-544 8,-110 "/>
<path fill="none" stroke="gray" d="M8,-110C8,-104 14,-98 20,-98"/>
<text text-anchor="middle" x="164.5" y="-542.1" font-family="Times Roman,serif" font-size="11.00" fill="gray">\</text>
</g>
<g id="graph3" class="cluster"><title>cluster_\Chadicus</title>
<polyline fill="none" stroke="gray" points="28,-106 301,-106 "/>
<path fill="none" stroke="gray" d="M301,-106C307,-106 313,-112 313,-118"/>
<polyline fill="none" stroke="gray" points="313,-118 313,-514 "/>
<path fill="none" stroke="gray" d="M313,-514C313,-520 307,-526 301,-526"/>
<polyline fill="none" stroke="gray" points="301,-526 28,-526 "/>
<path fill="none" stroke="gray" d="M28,-526C22,-526 16,-520 16,-514"/>
<polyline fill="none" stroke="gray" points="16,-514 16,-118 "/>
<path fill="none" stroke="gray" d="M16,-118C16,-112 22,-106 28,-106"/>
<text text-anchor="middle" x="164.5" y="-512.1" font-family="Times Roman,serif" font-size="11.00" fill="gray">Chadicus</text>
</g>
<g id="graph4" class="cluster"><title>cluster_\Chadicus\Marvel</title>
<polyline fill="none" stroke="gray" points="36,-114 293,-114 "/>
<path fill="none" stroke="gray" d="M293,-114C299,-114 305,-120 305,-126"/>
<polyline fill="none" stroke="gray" points="305,-126 305,-484 "/>
<path fill="none" stroke="gray" d="M305,-484C305,-490 299,-496 293,-496"/>
<polyline fill="none" stroke="gray" points="293,-496 36,-496 "/>
<path fill="none" stroke="gray" d="M36,-496C30,-496 24,-490 24,-484"/>
<polyline fill="none" stroke="gray" points="24,-484 24,-126 "/>
<path fill="none" stroke="gray" d="M24,-126C24,-120 30,-114 36,-114"/>
<text text-anchor="middle" x="164.5" y="-482.1" font-family="Times Roman,serif" font-size="11.00" fill="gray">Marvel</text>
</g>
<g id="graph5" class="cluster"><title>cluster_\Chadicus\Marvel\Api</title>
<polyline fill="none" stroke="gray" points="44,-122 285,-122 "/>
<path fill="none" stroke="gray" d="M285,-122C291,-122 297,-128 297,-134"/>
<polyline fill="none" stroke="gray" points="297,-134 297,-454 "/>
<path fill="none" stroke="gray" d="M297,-454C297,-460 291,-466 285,-466"/>
<polyline fill="none" stroke="gray" points="285,-466 44,-466 "/>
<path fill="none" stroke="gray" d="M44,-466C38,-466 32,-460 32,-454"/>
<polyline fill="none" stroke="gray" points="32,-454 32,-134 "/>
<path fill="none" stroke="gray" d="M32,-134C32,-128 38,-122 44,-122"/>
<text text-anchor="middle" x="164.5" y="-452.1" font-family="Times Roman,serif" font-size="11.00" fill="gray">Api</text>
</g>
<!-- \\Chadicus\\Marvel\\Api\\Response -->
<g id="node5" class="node"><title>\\Chadicus\\Marvel\\Api\\Response</title>
<polygon fill="none" stroke="black" points="282,-436 214,-436 214,-400 282,-400 282,-436"/>
<text text-anchor="middle" x="248" y="-415.1" font-family="Times Roman,serif" font-size="11.00">Response</text>
</g>
<!-- \\Chadicus\\Marvel\\Api\\Client -->
<g id="node6" class="node"><title>\\Chadicus\\Marvel\\Api\\Client</title>
<polygon fill="none" stroke="black" points="275,-382 221,-382 221,-346 275,-346 275,-382"/>
<text text-anchor="middle" x="248" y="-361.1" font-family="Times Roman,serif" font-size="11.00">Client</text>
</g>
<!-- \\Chadicus\\Marvel\\Api\\Request -->
<g id="node7" class="node"><title>\\Chadicus\\Marvel\\Api\\Request</title>
<polygon fill="none" stroke="black" points="278,-328 218,-328 218,-292 278,-292 278,-328"/>
<text text-anchor="middle" x="248" y="-307.1" font-family="Times Roman,serif" font-size="11.00">Request</text>
</g>
<!-- \\Chadicus\\Marvel\\Api\\ArrayCache -->
<g id="node8" class="node"><title>\\Chadicus\\Marvel\\Api\\ArrayCache</title>
<polygon fill="none" stroke="black" points="287,-274 209,-274 209,-238 287,-238 287,-274"/>
<text text-anchor="middle" x="248" y="-253.1" font-family="Times Roman,serif" font-size="11.00">ArrayCache</text>
</g>
<!-- \\Chadicus\\Marvel\\Api\\Cache -->
<g id="node12" class="node"><title>\\Chadicus\\Marvel\\Api\\Cache</title>
<polygon fill="none" stroke="black" points="97,-274 43,-274 43,-238 97,-238 97,-274"/>
<text text-anchor="middle" x="70" y="-253.1" font-family="Times Roman,serif" font-size="11.00">Cache</text>
</g>
<!-- \\Chadicus\\Marvel\\Api\\ArrayCache&#45;&gt;\\Chadicus\\Marvel\\Api\\Cache -->
<g id="edge6" class="edge"><title>\\Chadicus\\Marvel\\Api\\ArrayCache&#45;&gt;\\Chadicus\\Marvel\\Api\\Cache</title>
<path fill="none" stroke="black" stroke-dasharray="1,5" d="M208.496,-256C178.393,-256 137.214,-256 107.594,-256"/>
<polygon fill="none" stroke="black" points="107.246,-252.5 97.2463,-256 107.246,-259.5 107.246,-252.5"/>
</g>
<!-- \\Chadicus\\Marvel\\Api\\Collection -->
<g id="node9" class="node"><title>\\Chadicus\\Marvel\\Api\\Collection</title>
<polygon fill="none" stroke="black" points="282,-166 214,-166 214,-130 282,-130 282,-166"/>
<text text-anchor="middle" x="248" y="-145.1" font-family="Times Roman,serif" font-size="11.00">Collection</text>
</g>
<!-- \\Iterator -->
<g id="node15" class="node"><title>\\Iterator</title>
<ellipse fill="none" stroke="black" cx="70" cy="-72" rx="51.8276" ry="18.3848"/>
<text text-anchor="middle" x="70" y="-68.4" font-family="Times Roman,serif" font-size="14.00" fill="gray">\Iterator</text>
</g>
<!-- \\Chadicus\\Marvel\\Api\\Collection&#45;&gt;\\Iterator -->
<g id="edge8" class="edge"><title>\\Chadicus\\Marvel\\Api\\Collection&#45;&gt;\\Iterator</title>
<path fill="none" stroke="black" stroke-dasharray="1,5" d="M213.68,-133.346C184.749,-120.994 143.232,-103.268 112.259,-90.0433"/>
<polygon fill="none" stroke="black" points="113.582,-86.8026 103.011,-86.0947 110.834,-93.2404 113.582,-86.8026"/>
</g>
<!-- \\Countable -->
<g id="node17" class="node"><title>\\Countable</title>
<ellipse fill="none" stroke="black" cx="70" cy="-18" rx="65.0538" ry="18.3848"/>
<text text-anchor="middle" x="70" y="-14.4" font-family="Times Roman,serif" font-size="14.00" fill="gray">\Countable</text>
</g>
<!-- \\Chadicus\\Marvel\\Api\\Collection&#45;&gt;\\Countable -->
<g id="edge10" class="edge"><title>\\Chadicus\\Marvel\\Api\\Collection&#45;&gt;\\Countable</title>
<path fill="none" stroke="black" stroke-dasharray="1,5" d="M231.929,-129.922C211.293,-107.574 173.527,-69.5002 135,-45 130.112,-41.8915 124.805,-39.0084 119.402,-36.3738"/>
<polygon fill="none" stroke="black" points="120.824,-33.1754 110.276,-32.1786 117.901,-39.5355 120.824,-33.1754"/>
</g>
<!-- \\Chadicus\\Marvel\\Api\\CurlAdapter -->
<g id="node10" class="node"><title>\\Chadicus\\Marvel\\Api\\CurlAdapter</title>
<polygon fill="none" stroke="black" points="288,-220 208,-220 208,-184 288,-184 288,-220"/>
<text text-anchor="middle" x="248" y="-199.1" font-family="Times Roman,serif" font-size="11.00">CurlAdapter</text>
</g>
<!-- \\Chadicus\\Marvel\\Api\\Adapter -->
<g id="node11" class="node"><title>\\Chadicus\\Marvel\\Api\\Adapter</title>
<polygon fill="none" stroke="black" points="100,-220 40,-220 40,-184 100,-184 100,-220"/>
<text text-anchor="middle" x="70" y="-199.1" font-family="Times Roman,serif" font-size="11.00">Adapter</text>
</g>
<!-- \\Chadicus\\Marvel\\Api\\CurlAdapter&#45;&gt;\\Chadicus\\Marvel\\Api\\Adapter -->
<g id="edge12" class="edge"><title>\\Chadicus\\Marvel\\Api\\CurlAdapter&#45;&gt;\\Chadicus\\Marvel\\Api\\Adapter</title>
<path fill="none" stroke="black" stroke-dasharray="1,5" d="M207.163,-202C178.094,-202 139.214,-202 110.273,-202"/>
<polygon fill="none" stroke="black" points="110.096,-198.5 100.096,-202 110.096,-205.5 110.096,-198.5"/>
</g>
</g>
</svg>
