<?xml version="1.0" encoding="UTF-8" standalone="no"?>
<!DOCTYPE svg PUBLIC "-//W3C//DTD SVG 1.1//EN"
 "http://www.w3.org/Graphics/SVG/1.1/DTD/svg11.dtd">
<!-- Generated by graphviz version 2.26.3 (20100126.1600)
 -->
<!-- Title: G Pages: 1 -->
<svg width="333pt" height="490pt"
 viewBox="0.00 0.00 333.00 490.00" xmlns="http://www.w3.org/2000/svg" xmlns:xlink="http://www.w3.org/1999/xlink">
<g id="graph1" class="graph" transform="scale(1 1) rotate(0) translate(4 486)">
<title>G</title>
<polygon fill="white" stroke="white" points="-4,5 -4,-486 330,-486 330,5 -4,5"/>
<g id="graph2" class="cluster"><title>cluster_Global</title>
<polyline fill="none" stroke="gray" points="184,-8 305,-8 "/>
<path fill="none" stroke="gray" d="M305,-8C311,-8 317,-14 317,-20"/>
<polyline fill="none" stroke="gray" points="317,-20 317,-462 "/>
<path fill="none" stroke="gray" d="M317,-462C317,-468 311,-474 305,-474"/>
<polyline fill="none" stroke="gray" points="305,-474 184,-474 "/>
<path fill="none" stroke="gray" d="M184,-474C178,-474 172,-468 172,-462"/>
<polyline fill="none" stroke="gray" points="172,-462 172,-20 "/>
<path fill="none" stroke="gray" d="M172,-20C172,-14 178,-8 184,-8"/>
<text text-anchor="middle" x="244.5" y="-460.1" font-family="Times Roman,serif" font-size="11.00" fill="gray">\</text>
</g>
<g id="graph3" class="cluster"><title>cluster_\DominionEnterprises</title>
<polyline fill="none" stroke="gray" points="192,-16 297,-16 "/>
<path fill="none" stroke="gray" d="M297,-16C303,-16 309,-22 309,-28"/>
<polyline fill="none" stroke="gray" points="309,-28 309,-432 "/>
<path fill="none" stroke="gray" d="M309,-432C309,-438 303,-444 297,-444"/>
<polyline fill="none" stroke="gray" points="297,-444 192,-444 "/>
<path fill="none" stroke="gray" d="M192,-444C186,-444 180,-438 180,-432"/>
<polyline fill="none" stroke="gray" points="180,-432 180,-28 "/>
<path fill="none" stroke="gray" d="M180,-28C180,-22 186,-16 192,-16"/>
<text text-anchor="middle" x="244.5" y="-430.1" font-family="Times Roman,serif" font-size="11.00" fill="gray">DominionEnterprises</text>
</g>
<g id="graph4" class="cluster"><title>cluster_\DominionEnterprises\Util</title>
<polyline fill="none" stroke="gray" points="222,-124 268,-124 "/>
<path fill="none" stroke="gray" d="M268,-124C274,-124 280,-130 280,-136"/>
<polyline fill="none" stroke="gray" points="280,-136 280,-402 "/>
<path fill="none" stroke="gray" d="M280,-402C280,-408 274,-414 268,-414"/>
<polyline fill="none" stroke="gray" points="268,-414 222,-414 "/>
<path fill="none" stroke="gray" d="M222,-414C216,-414 210,-408 210,-402"/>
<polyline fill="none" stroke="gray" points="210,-402 210,-136 "/>
<path fill="none" stroke="gray" d="M210,-136C210,-130 216,-124 222,-124"/>
<text text-anchor="middle" x="245" y="-400.1" font-family="Times Roman,serif" font-size="11.00" fill="gray">Util</text>
</g>
<!-- \\DominionEnterprises\\Util\\Arrays -->
<g id="node4" class="node"><title>\\DominionEnterprises\\Util\\Arrays</title>
<polygon fill="none" stroke="black" points="272,-384 218,-384 218,-348 272,-348 272,-384"/>
<text text-anchor="middle" x="245" y="-363.1" font-family="Times Roman,serif" font-size="11.00">Arrays</text>
</g>
<!-- \\DominionEnterprises\\Util\\Time -->
<g id="node5" class="node"><title>\\DominionEnterprises\\Util\\Time</title>
<polygon fill="none" stroke="black" points="272,-330 218,-330 218,-294 272,-294 272,-330"/>
<text text-anchor="middle" x="245" y="-309.1" font-family="Times Roman,serif" font-size="11.00">Time</text>
</g>
<!-- \\DominionEnterprises\\Util\\Http -->
<g id="node6" class="node"><title>\\DominionEnterprises\\Util\\Http</title>
<polygon fill="none" stroke="black" points="272,-276 218,-276 218,-240 272,-240 272,-276"/>
<text text-anchor="middle" x="245" y="-255.1" font-family="Times Roman,serif" font-size="11.00">Http</text>
</g>
<!-- \\DominionEnterprises\\Util\\String -->
<g id="node7" class="node"><title>\\DominionEnterprises\\Util\\String</title>
<polygon fill="none" stroke="black" points="272,-222 218,-222 218,-186 272,-186 272,-222"/>
<text text-anchor="middle" x="245" y="-201.1" font-family="Times Roman,serif" font-size="11.00">String</text>
</g>
<!-- \\DominionEnterprises\\Util\\File -->
<g id="node8" class="node"><title>\\DominionEnterprises\\Util\\File</title>
<polygon fill="none" stroke="black" points="272,-168 218,-168 218,-132 272,-132 272,-168"/>
<text text-anchor="middle" x="245" y="-147.1" font-family="Times Roman,serif" font-size="11.00">File</text>
</g>
<!-- \\DominionEnterprises\\HttpException -->
<g id="node9" class="node"><title>\\DominionEnterprises\\HttpException</title>
<polygon fill="none" stroke="black" points="292,-114 198,-114 198,-78 292,-78 292,-114"/>
<text text-anchor="middle" x="245" y="-93.1" font-family="Times Roman,serif" font-size="11.00">HttpException</text>
</g>
<!-- \\Exception -->
<g id="node12" class="node"><title>\\Exception</title>
<ellipse fill="none" stroke="black" cx="62" cy="-96" rx="62.2254" ry="18.3848"/>
<text text-anchor="middle" x="62" y="-92.4" font-family="Times Roman,serif" font-size="14.00" fill="gray">\Exception</text>
</g>
<!-- \\DominionEnterprises\\HttpException&#45;&gt;\\Exception -->
<g id="edge5" class="edge"><title>\\DominionEnterprises\\HttpException&#45;&gt;\\Exception</title>
<path fill="none" stroke="black" d="M197.873,-96C178.491,-96 155.605,-96 134.196,-96"/>
<polygon fill="none" stroke="black" points="134.155,-92.5001 124.155,-96 134.155,-99.5001 134.155,-92.5001"/>
</g>
<!-- \\DominionEnterprises\\Util -->
<g id="node10" class="node"><title>\\DominionEnterprises\\Util</title>
<polygon fill="none" stroke="black" points="272,-60 218,-60 218,-24 272,-24 272,-60"/>
<text text-anchor="middle" x="245" y="-39.1" font-family="Times Roman,serif" font-size="11.00">Util</text>
</g>
</g>
</svg>
