<?xml version="1.0" encoding="UTF-8" standalone="no"?>
<!DOCTYPE svg PUBLIC "-//W3C//DTD SVG 1.1//EN"
 "http://www.w3.org/Graphics/SVG/1.1/DTD/svg11.dtd">
<!-- Generated by graphviz version 2.26.3 (20100126.1600)
 -->
<!-- Title: G Pages: 1 -->
<svg width="351pt" height="1116pt"
 viewBox="0.00 0.00 351.00 1116.00" xmlns="http://www.w3.org/2000/svg" xmlns:xlink="http://www.w3.org/1999/xlink">
<g id="graph1" class="graph" transform="scale(1 1) rotate(0) translate(4 1112)">
<title>G</title>
<polygon fill="white" stroke="white" points="-4,5 -4,-1112 348,-1112 348,5 -4,5"/>
<g id="graph2" class="cluster"><title>cluster_Global</title>
<polyline fill="none" stroke="gray" points="20,-152 323,-152 "/>
<path fill="none" stroke="gray" d="M323,-152C329,-152 335,-158 335,-164"/>
<polyline fill="none" stroke="gray" points="335,-164 335,-1088 "/>
<path fill="none" stroke="gray" d="M335,-1088C335,-1094 329,-1100 323,-1100"/>
<polyline fill="none" stroke="gray" points="323,-1100 20,-1100 "/>
<path fill="none" stroke="gray" d="M20,-1100C14,-1100 8,-1094 8,-1088"/>
<polyline fill="none" stroke="gray" points="8,-1088 8,-164 "/>
<path fill="none" stroke="gray" d="M8,-164C8,-158 14,-152 20,-152"/>
<text text-anchor="middle" x="171.5" y="-1086.1" font-family="Times Roman,serif" font-size="11.00" fill="gray">\</text>
</g>
<g id="graph3" class="cluster"><title>cluster_\Chadicus</title>
<polyline fill="none" stroke="gray" points="28,-160 315,-160 "/>
<path fill="none" stroke="gray" d="M315,-160C321,-160 327,-166 327,-172"/>
<polyline fill="none" stroke="gray" points="327,-172 327,-1058 "/>
<path fill="none" stroke="gray" d="M327,-1058C327,-1064 321,-1070 315,-1070"/>
<polyline fill="none" stroke="gray" points="315,-1070 28,-1070 "/>
<path fill="none" stroke="gray" d="M28,-1070C22,-1070 16,-1064 16,-1058"/>
<polyline fill="none" stroke="gray" points="16,-1058 16,-172 "/>
<path fill="none" stroke="gray" d="M16,-172C16,-166 22,-160 28,-160"/>
<text text-anchor="middle" x="171.5" y="-1056.1" font-family="Times Roman,serif" font-size="11.00" fill="gray">Chadicus</text>
</g>
<g id="graph4" class="cluster"><title>cluster_\Chadicus\Filter</title>
<polyline fill="none" stroke="gray" points="220,-168 282,-168 "/>
<path fill="none" stroke="gray" d="M282,-168C288,-168 294,-174 294,-180"/>
<polyline fill="none" stroke="gray" points="294,-180 294,-284 "/>
<path fill="none" stroke="gray" d="M294,-284C294,-290 288,-296 282,-296"/>
<polyline fill="none" stroke="gray" points="282,-296 220,-296 "/>
<path fill="none" stroke="gray" d="M220,-296C214,-296 208,-290 208,-284"/>
<polyline fill="none" stroke="gray" points="208,-284 208,-180 "/>
<path fill="none" stroke="gray" d="M208,-180C208,-174 214,-168 220,-168"/>
<text text-anchor="middle" x="251" y="-282.1" font-family="Times Roman,serif" font-size="11.00" fill="gray">Filter</text>
</g>
<g id="graph5" class="cluster"><title>cluster_\Chadicus\Marvel</title>
<polyline fill="none" stroke="gray" points="36,-304 307,-304 "/>
<path fill="none" stroke="gray" d="M307,-304C313,-304 319,-310 319,-316"/>
<polyline fill="none" stroke="gray" points="319,-316 319,-1028 "/>
<path fill="none" stroke="gray" d="M319,-1028C319,-1034 313,-1040 307,-1040"/>
<polyline fill="none" stroke="gray" points="307,-1040 36,-1040 "/>
<path fill="none" stroke="gray" d="M36,-1040C30,-1040 24,-1034 24,-1028"/>
<polyline fill="none" stroke="gray" points="24,-1028 24,-316 "/>
<path fill="none" stroke="gray" d="M24,-316C24,-310 30,-304 36,-304"/>
<text text-anchor="middle" x="171.5" y="-1026.1" font-family="Times Roman,serif" font-size="11.00" fill="gray">Marvel</text>
</g>
<g id="graph6" class="cluster"><title>cluster_\Chadicus\Marvel\Api</title>
<polyline fill="none" stroke="gray" points="44,-312 299,-312 "/>
<path fill="none" stroke="gray" d="M299,-312C305,-312 311,-318 311,-324"/>
<polyline fill="none" stroke="gray" points="311,-324 311,-998 "/>
<path fill="none" stroke="gray" d="M311,-998C311,-1004 305,-1010 299,-1010"/>
<polyline fill="none" stroke="gray" points="299,-1010 44,-1010 "/>
<path fill="none" stroke="gray" d="M44,-1010C38,-1010 32,-1004 32,-998"/>
<polyline fill="none" stroke="gray" points="32,-998 32,-324 "/>
<path fill="none" stroke="gray" d="M32,-324C32,-318 38,-312 44,-312"/>
<text text-anchor="middle" x="171.5" y="-996.1" font-family="Times Roman,serif" font-size="11.00" fill="gray">Api</text>
</g>
<g id="graph7" class="cluster"><title>cluster_\Chadicus\Marvel\Api\Entities</title>
<polyline fill="none" stroke="gray" points="211,-690 291,-690 "/>
<path fill="none" stroke="gray" d="M291,-690C297,-690 303,-696 303,-702"/>
<polyline fill="none" stroke="gray" points="303,-702 303,-968 "/>
<path fill="none" stroke="gray" d="M303,-968C303,-974 297,-980 291,-980"/>
<polyline fill="none" stroke="gray" points="291,-980 211,-980 "/>
<path fill="none" stroke="gray" d="M211,-980C205,-980 199,-974 199,-968"/>
<polyline fill="none" stroke="gray" points="199,-968 199,-702 "/>
<path fill="none" stroke="gray" d="M199,-702C199,-696 205,-690 211,-690"/>
<text text-anchor="middle" x="251" y="-966.1" font-family="Times Roman,serif" font-size="11.00" fill="gray">Entities</text>
</g>
<!-- \\Chadicus\\Filter\\DateTime -->
<g id="node4" class="node"><title>\\Chadicus\\Filter\\DateTime</title>
<polygon fill="none" stroke="black" points="285,-266 217,-266 217,-230 285,-230 285,-266"/>
<text text-anchor="middle" x="251" y="-245.1" font-family="Times Roman,serif" font-size="11.00">DateTime</text>
</g>
<!-- \\Chadicus\\Filter\\Exception -->
<g id="node5" class="node"><title>\\Chadicus\\Filter\\Exception</title>
<polygon fill="none" stroke="black" points="286,-212 216,-212 216,-176 286,-176 286,-212"/>
<text text-anchor="middle" x="251" y="-191.1" font-family="Times Roman,serif" font-size="11.00">Exception</text>
</g>
<!-- \\Exception -->
<g id="node24" class="node"><title>\\Exception</title>
<ellipse fill="none" stroke="black" cx="70" cy="-18" rx="62.2254" ry="18.3848"/>
<text text-anchor="middle" x="70" y="-14.4" font-family="Times Roman,serif" font-size="14.00" fill="gray">\Exception</text>
</g>
<!-- \\Chadicus\\Filter\\Exception&#45;&gt;\\Exception -->
<g id="edge8" class="edge"><title>\\Chadicus\\Filter\\Exception&#45;&gt;\\Exception</title>
<path fill="none" stroke="black" d="M241.168,-175.957C223.595,-145.211 184.009,-82.3722 135,-45 130.627,-41.6657 125.784,-38.6693 120.77,-35.9951"/>
<polygon fill="none" stroke="black" points="122.146,-32.7723 111.625,-31.526 119.073,-39.0614 122.146,-32.7723"/>
</g>
<!-- \\Chadicus\\Marvel\\Api\\Entities\\Character -->
<g id="node9" class="node"><title>\\Chadicus\\Marvel\\Api\\Entities\\Character</title>
<polygon fill="none" stroke="black" points="286,-950 216,-950 216,-914 286,-914 286,-950"/>
<text text-anchor="middle" x="251" y="-929.1" font-family="Times Roman,serif" font-size="11.00">Character</text>
</g>
<!-- \\Chadicus\\Marvel\\Api\\Entities\\Image -->
<g id="node10" class="node"><title>\\Chadicus\\Marvel\\Api\\Entities\\Image</title>
<polygon fill="none" stroke="black" points="278,-896 224,-896 224,-860 278,-860 278,-896"/>
<text text-anchor="middle" x="251" y="-875.1" font-family="Times Roman,serif" font-size="11.00">Image</text>
</g>
<!-- \\Chadicus\\Marvel\\Api\\Entities\\Url -->
<g id="node11" class="node"><title>\\Chadicus\\Marvel\\Api\\Entities\\Url</title>
<polygon fill="none" stroke="black" points="278,-842 224,-842 224,-806 278,-806 278,-842"/>
<text text-anchor="middle" x="251" y="-821.1" font-family="Times Roman,serif" font-size="11.00">Url</text>
</g>
<!-- \\Chadicus\\Marvel\\Api\\Entities\\ResourceList -->
<g id="node12" class="node"><title>\\Chadicus\\Marvel\\Api\\Entities\\ResourceList</title>
<polygon fill="none" stroke="black" points="294,-788 208,-788 208,-752 294,-752 294,-788"/>
<text text-anchor="middle" x="251" y="-767.1" font-family="Times Roman,serif" font-size="11.00">ResourceList</text>
</g>
<!-- \\Chadicus\\Marvel\\Api\\Entities\\ImageVariant -->
<g id="node13" class="node"><title>\\Chadicus\\Marvel\\Api\\Entities\\ImageVariant</title>
<polygon fill="none" stroke="black" points="295,-734 207,-734 207,-698 295,-698 295,-734"/>
<text text-anchor="middle" x="251" y="-713.1" font-family="Times Roman,serif" font-size="11.00">ImageVariant</text>
</g>
<!-- \\Chadicus\\Marvel\\Api\\Response -->
<g id="node14" class="node"><title>\\Chadicus\\Marvel\\Api\\Response</title>
<polygon fill="none" stroke="black" points="285,-680 217,-680 217,-644 285,-644 285,-680"/>
<text text-anchor="middle" x="251" y="-659.1" font-family="Times Roman,serif" font-size="11.00">Response</text>
</g>
<!-- \\Chadicus\\Marvel\\Api\\MongoCache -->
<g id="node15" class="node"><title>\\Chadicus\\Marvel\\Api\\MongoCache</title>
<polygon fill="none" stroke="black" points="294,-626 208,-626 208,-590 294,-590 294,-626"/>
<text text-anchor="middle" x="251" y="-605.1" font-family="Times Roman,serif" font-size="11.00">MongoCache</text>
</g>
<!-- \\Chadicus\\Marvel\\Api\\Cache -->
<g id="node22" class="node"><title>\\Chadicus\\Marvel\\Api\\Cache</title>
<polygon fill="none" stroke="black" points="97,-545 43,-545 43,-509 97,-509 97,-545"/>
<text text-anchor="middle" x="70" y="-524.1" font-family="Times Roman,serif" font-size="11.00">Cache</text>
</g>
<!-- \\Chadicus\\Marvel\\Api\\MongoCache&#45;&gt;\\Chadicus\\Marvel\\Api\\Cache -->
<g id="edge10" class="edge"><title>\\Chadicus\\Marvel\\Api\\MongoCache&#45;&gt;\\Chadicus\\Marvel\\Api\\Cache</title>
<path fill="none" stroke="black" stroke-dasharray="1,5" d="M210.38,-589.822C179.156,-575.849 136.411,-556.72 106.317,-543.252"/>
<polygon fill="none" stroke="black" points="107.579,-539.982 97.0211,-539.092 104.719,-546.372 107.579,-539.982"/>
</g>
<!-- \\Chadicus\\Marvel\\Api\\Client -->
<g id="node16" class="node"><title>\\Chadicus\\Marvel\\Api\\Client</title>
<polygon fill="none" stroke="black" points="278,-572 224,-572 224,-536 278,-536 278,-572"/>
<text text-anchor="middle" x="251" y="-551.1" font-family="Times Roman,serif" font-size="11.00">Client</text>
</g>
<!-- \\Chadicus\\Marvel\\Api\\Request -->
<g id="node17" class="node"><title>\\Chadicus\\Marvel\\Api\\Request</title>
<polygon fill="none" stroke="black" points="281,-518 221,-518 221,-482 281,-482 281,-518"/>
<text text-anchor="middle" x="251" y="-497.1" font-family="Times Roman,serif" font-size="11.00">Request</text>
</g>
<!-- \\Chadicus\\Marvel\\Api\\ArrayCache -->
<g id="node18" class="node"><title>\\Chadicus\\Marvel\\Api\\ArrayCache</title>
<polygon fill="none" stroke="black" points="290,-464 212,-464 212,-428 290,-428 290,-464"/>
<text text-anchor="middle" x="251" y="-443.1" font-family="Times Roman,serif" font-size="11.00">ArrayCache</text>
</g>
<!-- \\Chadicus\\Marvel\\Api\\ArrayCache&#45;&gt;\\Chadicus\\Marvel\\Api\\Cache -->
<g id="edge12" class="edge"><title>\\Chadicus\\Marvel\\Api\\ArrayCache&#45;&gt;\\Chadicus\\Marvel\\Api\\Cache</title>
<path fill="none" stroke="black" stroke-dasharray="1,5" d="M211.279,-463.776C180.01,-477.769 136.783,-497.114 106.404,-510.709"/>
<polygon fill="none" stroke="black" points="104.721,-507.627 97.0234,-514.907 107.581,-514.017 104.721,-507.627"/>
</g>
<!-- \\Chadicus\\Marvel\\Api\\Collection -->
<g id="node19" class="node"><title>\\Chadicus\\Marvel\\Api\\Collection</title>
<polygon fill="none" stroke="black" points="285,-356 217,-356 217,-320 285,-320 285,-356"/>
<text text-anchor="middle" x="251" y="-335.1" font-family="Times Roman,serif" font-size="11.00">Collection</text>
</g>
<!-- \\Iterator -->
<g id="node28" class="node"><title>\\Iterator</title>
<ellipse fill="none" stroke="black" cx="70" cy="-72" rx="51.8276" ry="18.3848"/>
<text text-anchor="middle" x="70" y="-68.4" font-family="Times Roman,serif" font-size="14.00" fill="gray">\Iterator</text>
</g>
<!-- \\Chadicus\\Marvel\\Api\\Collection&#45;&gt;\\Iterator -->
<g id="edge14" class="edge"><title>\\Chadicus\\Marvel\\Api\\Collection&#45;&gt;\\Iterator</title>
<path fill="none" stroke="black" stroke-dasharray="1,5" d="M219.554,-319.912C211.973,-314.334 204.488,-307.622 199,-300 144.223,-223.915 198.401,-168.064 135,-99 130.977,-94.6173 126.133,-90.9251 120.925,-87.8192"/>
<polygon fill="none" stroke="black" points="122.388,-84.6346 111.9,-83.1273 119.159,-90.8454 122.388,-84.6346"/>
</g>
<!-- \\Countable -->
<g id="node30" class="node"><title>\\Countable</title>
<ellipse fill="none" stroke="black" cx="70" cy="-126" rx="65.0538" ry="18.3848"/>
<text text-anchor="middle" x="70" y="-122.4" font-family="Times Roman,serif" font-size="14.00" fill="gray">\Countable</text>
</g>
<!-- \\Chadicus\\Marvel\\Api\\Collection&#45;&gt;\\Countable -->
<g id="edge16" class="edge"><title>\\Chadicus\\Marvel\\Api\\Collection&#45;&gt;\\Countable</title>
<path fill="none" stroke="black" stroke-dasharray="1,5" d="M223.038,-319.927C214.877,-314.044 206.22,-307.17 199,-300 152.096,-253.417 108.78,-188.763 86.2419,-152.821"/>
<polygon fill="none" stroke="black" points="88.9567,-150.558 80.7097,-143.907 83.009,-154.249 88.9567,-150.558"/>
</g>
<!-- \\Chadicus\\Marvel\\Api\\CurlAdapter -->
<g id="node20" class="node"><title>\\Chadicus\\Marvel\\Api\\CurlAdapter</title>
<polygon fill="none" stroke="black" points="291,-410 211,-410 211,-374 291,-374 291,-410"/>
<text text-anchor="middle" x="251" y="-389.1" font-family="Times Roman,serif" font-size="11.00">CurlAdapter</text>
</g>
<!-- \\Chadicus\\Marvel\\Api\\Adapter -->
<g id="node21" class="node"><title>\\Chadicus\\Marvel\\Api\\Adapter</title>
<polygon fill="none" stroke="black" points="100,-410 40,-410 40,-374 100,-374 100,-410"/>
<text text-anchor="middle" x="70" y="-389.1" font-family="Times Roman,serif" font-size="11.00">Adapter</text>
</g>
<!-- \\Chadicus\\Marvel\\Api\\CurlAdapter&#45;&gt;\\Chadicus\\Marvel\\Api\\Adapter -->
<g id="edge18" class="edge"><title>\\Chadicus\\Marvel\\Api\\CurlAdapter&#45;&gt;\\Chadicus\\Marvel\\Api\\Adapter</title>
<path fill="none" stroke="black" stroke-dasharray="1,5" d="M210.38,-392C180.452,-392 139.939,-392 110.127,-392"/>
<polygon fill="none" stroke="black" points="110.064,-388.5 100.064,-392 110.064,-395.5 110.064,-388.5"/>
</g>
</g>
</svg>
