<?xml version="1.0" encoding="UTF-8" standalone="no"?>
<!DOCTYPE svg PUBLIC "-//W3C//DTD SVG 1.1//EN"
 "http://www.w3.org/Graphics/SVG/1.1/DTD/svg11.dtd">
<!-- Generated by graphviz version 2.26.3 (20100126.1600)
 -->
<!-- Title: G Pages: 1 -->
<svg width="351pt" height="1170pt"
 viewBox="0.00 0.00 351.00 1170.00" xmlns="http://www.w3.org/2000/svg" xmlns:xlink="http://www.w3.org/1999/xlink">
<g id="graph1" class="graph" transform="scale(1 1) rotate(0) translate(4 1166)">
<title>G</title>
<polygon fill="white" stroke="white" points="-4,5 -4,-1166 348,-1166 348,5 -4,5"/>
<g id="graph2" class="cluster"><title>cluster_Global</title>
<polyline fill="none" stroke="gray" points="20,-152 323,-152 "/>
<path fill="none" stroke="gray" d="M323,-152C329,-152 335,-158 335,-164"/>
<polyline fill="none" stroke="gray" points="335,-164 335,-1142 "/>
<path fill="none" stroke="gray" d="M335,-1142C335,-1148 329,-1154 323,-1154"/>
<polyline fill="none" stroke="gray" points="323,-1154 20,-1154 "/>
<path fill="none" stroke="gray" d="M20,-1154C14,-1154 8,-1148 8,-1142"/>
<polyline fill="none" stroke="gray" points="8,-1142 8,-164 "/>
<path fill="none" stroke="gray" d="M8,-164C8,-158 14,-152 20,-152"/>
<text text-anchor="middle" x="171.5" y="-1140.1" font-family="Times Roman,serif" font-size="11.00" fill="gray">\</text>
</g>
<g id="graph3" class="cluster"><title>cluster_\Chadicus</title>
<polyline fill="none" stroke="gray" points="28,-160 315,-160 "/>
<path fill="none" stroke="gray" d="M315,-160C321,-160 327,-166 327,-172"/>
<polyline fill="none" stroke="gray" points="327,-172 327,-1112 "/>
<path fill="none" stroke="gray" d="M327,-1112C327,-1118 321,-1124 315,-1124"/>
<polyline fill="none" stroke="gray" points="315,-1124 28,-1124 "/>
<path fill="none" stroke="gray" d="M28,-1124C22,-1124 16,-1118 16,-1112"/>
<polyline fill="none" stroke="gray" points="16,-1112 16,-172 "/>
<path fill="none" stroke="gray" d="M16,-172C16,-166 22,-160 28,-160"/>
<text text-anchor="middle" x="171.5" y="-1110.1" font-family="Times Roman,serif" font-size="11.00" fill="gray">Chadicus</text>
</g>
<g id="graph4" class="cluster"><title>cluster_\Chadicus\Marvel</title>
<polyline fill="none" stroke="gray" points="36,-304 307,-304 "/>
<path fill="none" stroke="gray" d="M307,-304C313,-304 319,-310 319,-316"/>
<polyline fill="none" stroke="gray" points="319,-316 319,-1082 "/>
<path fill="none" stroke="gray" d="M319,-1082C319,-1088 313,-1094 307,-1094"/>
<polyline fill="none" stroke="gray" points="307,-1094 36,-1094 "/>
<path fill="none" stroke="gray" d="M36,-1094C30,-1094 24,-1088 24,-1082"/>
<polyline fill="none" stroke="gray" points="24,-1082 24,-316 "/>
<path fill="none" stroke="gray" d="M24,-316C24,-310 30,-304 36,-304"/>
<text text-anchor="middle" x="171.5" y="-1080.1" font-family="Times Roman,serif" font-size="11.00" fill="gray">Marvel</text>
</g>
<g id="graph5" class="cluster"><title>cluster_\Chadicus\Marvel\Api</title>
<polyline fill="none" stroke="gray" points="44,-312 299,-312 "/>
<path fill="none" stroke="gray" d="M299,-312C305,-312 311,-318 311,-324"/>
<polyline fill="none" stroke="gray" points="311,-324 311,-1052 "/>
<path fill="none" stroke="gray" d="M311,-1052C311,-1058 305,-1064 299,-1064"/>
<polyline fill="none" stroke="gray" points="299,-1064 44,-1064 "/>
<path fill="none" stroke="gray" d="M44,-1064C38,-1064 32,-1058 32,-1052"/>
<polyline fill="none" stroke="gray" points="32,-1052 32,-324 "/>
<path fill="none" stroke="gray" d="M32,-324C32,-318 38,-312 44,-312"/>
<text text-anchor="middle" x="171.5" y="-1050.1" font-family="Times Roman,serif" font-size="11.00" fill="gray">Api</text>
</g>
<g id="graph6" class="cluster"><title>cluster_\Chadicus\Marvel\Api\Entities</title>
<polyline fill="none" stroke="gray" points="211,-690 291,-690 "/>
<path fill="none" stroke="gray" d="M291,-690C297,-690 303,-696 303,-702"/>
<polyline fill="none" stroke="gray" points="303,-702 303,-1022 "/>
<path fill="none" stroke="gray" d="M303,-1022C303,-1028 297,-1034 291,-1034"/>
<polyline fill="none" stroke="gray" points="291,-1034 211,-1034 "/>
<path fill="none" stroke="gray" d="M211,-1034C205,-1034 199,-1028 199,-1022"/>
<polyline fill="none" stroke="gray" points="199,-1022 199,-702 "/>
<path fill="none" stroke="gray" d="M199,-702C199,-696 205,-690 211,-690"/>
<text text-anchor="middle" x="251" y="-1020.1" font-family="Times Roman,serif" font-size="11.00" fill="gray">Entities</text>
</g>
<g id="graph7" class="cluster"><title>cluster_\Chadicus\Filter</title>
<polyline fill="none" stroke="gray" points="220,-168 282,-168 "/>
<path fill="none" stroke="gray" d="M282,-168C288,-168 294,-174 294,-180"/>
<polyline fill="none" stroke="gray" points="294,-180 294,-284 "/>
<path fill="none" stroke="gray" d="M294,-284C294,-290 288,-296 282,-296"/>
<polyline fill="none" stroke="gray" points="282,-296 220,-296 "/>
<path fill="none" stroke="gray" d="M220,-296C214,-296 208,-290 208,-284"/>
<polyline fill="none" stroke="gray" points="208,-284 208,-180 "/>
<path fill="none" stroke="gray" d="M208,-180C208,-174 214,-168 220,-168"/>
<text text-anchor="middle" x="251" y="-282.1" font-family="Times Roman,serif" font-size="11.00" fill="gray">Filter</text>
</g>
<!-- \\Chadicus\\Marvel\\Api\\Entities\\ResourceList -->
<g id="node6" class="node"><title>\\Chadicus\\Marvel\\Api\\Entities\\ResourceList</title>
<polygon fill="none" stroke="black" points="294,-1004 208,-1004 208,-968 294,-968 294,-1004"/>
<text text-anchor="middle" x="251" y="-983.1" font-family="Times Roman,serif" font-size="11.00">ResourceList</text>
</g>
<!-- \\Chadicus\\Marvel\\Api\\Entities\\ImageVariant -->
<g id="node7" class="node"><title>\\Chadicus\\Marvel\\Api\\Entities\\ImageVariant</title>
<polygon fill="none" stroke="black" points="295,-950 207,-950 207,-914 295,-914 295,-950"/>
<text text-anchor="middle" x="251" y="-929.1" font-family="Times Roman,serif" font-size="11.00">ImageVariant</text>
</g>
<!-- \\Chadicus\\Marvel\\Api\\Entities\\Url -->
<g id="node8" class="node"><title>\\Chadicus\\Marvel\\Api\\Entities\\Url</title>
<polygon fill="none" stroke="black" points="278,-896 224,-896 224,-860 278,-860 278,-896"/>
<text text-anchor="middle" x="251" y="-875.1" font-family="Times Roman,serif" font-size="11.00">Url</text>
</g>
<!-- \\Chadicus\\Marvel\\Api\\Entities\\Character -->
<g id="node9" class="node"><title>\\Chadicus\\Marvel\\Api\\Entities\\Character</title>
<polygon fill="none" stroke="black" points="286,-842 216,-842 216,-806 286,-806 286,-842"/>
<text text-anchor="middle" x="251" y="-821.1" font-family="Times Roman,serif" font-size="11.00">Character</text>
</g>
<!-- \\Chadicus\\Marvel\\Api\\Entities\\Image -->
<g id="node10" class="node"><title>\\Chadicus\\Marvel\\Api\\Entities\\Image</title>
<polygon fill="none" stroke="black" points="278,-788 224,-788 224,-752 278,-752 278,-788"/>
<text text-anchor="middle" x="251" y="-767.1" font-family="Times Roman,serif" font-size="11.00">Image</text>
</g>
<!-- \\Chadicus\\Marvel\\Api\\Entities\\Price -->
<g id="node11" class="node"><title>\\Chadicus\\Marvel\\Api\\Entities\\Price</title>
<polygon fill="none" stroke="black" points="278,-734 224,-734 224,-698 278,-698 278,-734"/>
<text text-anchor="middle" x="251" y="-713.1" font-family="Times Roman,serif" font-size="11.00">Price</text>
</g>
<!-- \\Chadicus\\Marvel\\Api\\CurlAdapter -->
<g id="node12" class="node"><title>\\Chadicus\\Marvel\\Api\\CurlAdapter</title>
<polygon fill="none" stroke="black" points="291,-680 211,-680 211,-644 291,-644 291,-680"/>
<text text-anchor="middle" x="251" y="-659.1" font-family="Times Roman,serif" font-size="11.00">CurlAdapter</text>
</g>
<!-- \\Chadicus\\Marvel\\Api\\Adapter -->
<g id="node19" class="node"><title>\\Chadicus\\Marvel\\Api\\Adapter</title>
<polygon fill="none" stroke="black" points="100,-680 40,-680 40,-644 100,-644 100,-680"/>
<text text-anchor="middle" x="70" y="-659.1" font-family="Times Roman,serif" font-size="11.00">Adapter</text>
</g>
<!-- \\Chadicus\\Marvel\\Api\\CurlAdapter&#45;&gt;\\Chadicus\\Marvel\\Api\\Adapter -->
<g id="edge8" class="edge"><title>\\Chadicus\\Marvel\\Api\\CurlAdapter&#45;&gt;\\Chadicus\\Marvel\\Api\\Adapter</title>
<path fill="none" stroke="black" stroke-dasharray="1,5" d="M210.38,-662C180.452,-662 139.939,-662 110.127,-662"/>
<polygon fill="none" stroke="black" points="110.064,-658.5 100.064,-662 110.064,-665.5 110.064,-658.5"/>
</g>
<!-- \\Chadicus\\Marvel\\Api\\ArrayCache -->
<g id="node13" class="node"><title>\\Chadicus\\Marvel\\Api\\ArrayCache</title>
<polygon fill="none" stroke="black" points="290,-626 212,-626 212,-590 290,-590 290,-626"/>
<text text-anchor="middle" x="251" y="-605.1" font-family="Times Roman,serif" font-size="11.00">ArrayCache</text>
</g>
<!-- \\Chadicus\\Marvel\\Api\\Cache -->
<g id="node20" class="node"><title>\\Chadicus\\Marvel\\Api\\Cache</title>
<polygon fill="none" stroke="black" points="97,-545 43,-545 43,-509 97,-509 97,-545"/>
<text text-anchor="middle" x="70" y="-524.1" font-family="Times Roman,serif" font-size="11.00">Cache</text>
</g>
<!-- \\Chadicus\\Marvel\\Api\\ArrayCache&#45;&gt;\\Chadicus\\Marvel\\Api\\Cache -->
<g id="edge12" class="edge"><title>\\Chadicus\\Marvel\\Api\\ArrayCache&#45;&gt;\\Chadicus\\Marvel\\Api\\Cache</title>
<path fill="none" stroke="black" stroke-dasharray="1,5" d="M211.279,-590.224C180.01,-576.231 136.783,-556.886 106.404,-543.291"/>
<polygon fill="none" stroke="black" points="107.581,-539.983 97.0234,-539.093 104.721,-546.373 107.581,-539.983"/>
</g>
<!-- \\Chadicus\\Marvel\\Api\\Client -->
<g id="node14" class="node"><title>\\Chadicus\\Marvel\\Api\\Client</title>
<polygon fill="none" stroke="black" points="278,-572 224,-572 224,-536 278,-536 278,-572"/>
<text text-anchor="middle" x="251" y="-551.1" font-family="Times Roman,serif" font-size="11.00">Client</text>
</g>
<!-- \\Chadicus\\Marvel\\Api\\Response -->
<g id="node15" class="node"><title>\\Chadicus\\Marvel\\Api\\Response</title>
<polygon fill="none" stroke="black" points="285,-518 217,-518 217,-482 285,-482 285,-518"/>
<text text-anchor="middle" x="251" y="-497.1" font-family="Times Roman,serif" font-size="11.00">Response</text>
</g>
<!-- \\Chadicus\\Marvel\\Api\\Collection -->
<g id="node16" class="node"><title>\\Chadicus\\Marvel\\Api\\Collection</title>
<polygon fill="none" stroke="black" points="285,-356 217,-356 217,-320 285,-320 285,-356"/>
<text text-anchor="middle" x="251" y="-335.1" font-family="Times Roman,serif" font-size="11.00">Collection</text>
</g>
<!-- \\Iterator -->
<g id="node29" class="node"><title>\\Iterator</title>
<ellipse fill="none" stroke="black" cx="70" cy="-126" rx="51.8276" ry="18.3848"/>
<text text-anchor="middle" x="70" y="-122.4" font-family="Times Roman,serif" font-size="14.00" fill="gray">\Iterator</text>
</g>
<!-- \\Chadicus\\Marvel\\Api\\Collection&#45;&gt;\\Iterator -->
<g id="edge14" class="edge"><title>\\Chadicus\\Marvel\\Api\\Collection&#45;&gt;\\Iterator</title>
<path fill="none" stroke="black" stroke-dasharray="1,5" d="M223.038,-319.927C214.877,-314.044 206.22,-307.17 199,-300 151.973,-253.296 108.554,-188.425 86.0658,-152.54"/>
<polygon fill="none" stroke="black" points="88.7959,-150.301 80.5508,-143.648 82.8471,-153.991 88.7959,-150.301"/>
</g>
<!-- \\Countable -->
<g id="node31" class="node"><title>\\Countable</title>
<ellipse fill="none" stroke="black" cx="70" cy="-72" rx="65.0538" ry="18.3848"/>
<text text-anchor="middle" x="70" y="-68.4" font-family="Times Roman,serif" font-size="14.00" fill="gray">\Countable</text>
</g>
<!-- \\Chadicus\\Marvel\\Api\\Collection&#45;&gt;\\Countable -->
<g id="edge16" class="edge"><title>\\Chadicus\\Marvel\\Api\\Collection&#45;&gt;\\Countable</title>
<path fill="none" stroke="black" stroke-dasharray="1,5" d="M219.554,-319.912C211.973,-314.334 204.488,-307.622 199,-300 144.223,-223.915 198.401,-168.064 135,-99 131.895,-95.6173 128.3,-92.646 124.428,-90.0381"/>
<polygon fill="none" stroke="black" points="125.99,-86.8975 115.587,-84.8909 122.468,-92.947 125.99,-86.8975"/>
</g>
<!-- \\Chadicus\\Marvel\\Api\\Request -->
<g id="node17" class="node"><title>\\Chadicus\\Marvel\\Api\\Request</title>
<polygon fill="none" stroke="black" points="281,-410 221,-410 221,-374 281,-374 281,-410"/>
<text text-anchor="middle" x="251" y="-389.1" font-family="Times Roman,serif" font-size="11.00">Request</text>
</g>
<!-- \\Chadicus\\Marvel\\Api\\MongoCache -->
<g id="node18" class="node"><title>\\Chadicus\\Marvel\\Api\\MongoCache</title>
<polygon fill="none" stroke="black" points="294,-464 208,-464 208,-428 294,-428 294,-464"/>
<text text-anchor="middle" x="251" y="-443.1" font-family="Times Roman,serif" font-size="11.00">MongoCache</text>
</g>
<!-- \\Chadicus\\Marvel\\Api\\MongoCache&#45;&gt;\\Chadicus\\Marvel\\Api\\Cache -->
<g id="edge18" class="edge"><title>\\Chadicus\\Marvel\\Api\\MongoCache&#45;&gt;\\Chadicus\\Marvel\\Api\\Cache</title>
<path fill="none" stroke="black" stroke-dasharray="1,5" d="M216.041,-464.102C184.951,-480.148 143.174,-501.559 135,-505 126.049,-508.768 116.208,-512.367 106.952,-515.522"/>
<polygon fill="none" stroke="black" points="105.593,-512.286 97.206,-518.759 107.8,-518.929 105.593,-512.286"/>
</g>
<!-- \\Chadicus\\Filter\\Exception -->
<g id="node22" class="node"><title>\\Chadicus\\Filter\\Exception</title>
<polygon fill="none" stroke="black" points="286,-266 216,-266 216,-230 286,-230 286,-266"/>
<text text-anchor="middle" x="251" y="-245.1" font-family="Times Roman,serif" font-size="11.00">Exception</text>
</g>
<!-- \\Exception -->
<g id="node26" class="node"><title>\\Exception</title>
<ellipse fill="none" stroke="black" cx="70" cy="-18" rx="62.2254" ry="18.3848"/>
<text text-anchor="middle" x="70" y="-14.4" font-family="Times Roman,serif" font-size="14.00" fill="gray">\Exception</text>
</g>
<!-- \\Chadicus\\Filter\\Exception&#45;&gt;\\Exception -->
<g id="edge10" class="edge"><title>\\Chadicus\\Filter\\Exception&#45;&gt;\\Exception</title>
<path fill="none" stroke="black" d="M215.976,-234.428C209.713,-230.795 203.697,-226.352 199,-221 144.097,-158.443 192.518,-105.162 135,-45 131.591,-41.4339 127.64,-38.3211 123.403,-35.6072"/>
<polygon fill="none" stroke="black" points="124.826,-32.3932 114.388,-30.5796 121.417,-38.5069 124.826,-32.3932"/>
</g>
<!-- \\Chadicus\\Filter\\DateTime -->
<g id="node23" class="node"><title>\\Chadicus\\Filter\\DateTime</title>
<polygon fill="none" stroke="black" points="285,-212 217,-212 217,-176 285,-176 285,-212"/>
<text text-anchor="middle" x="251" y="-191.1" font-family="Times Roman,serif" font-size="11.00">DateTime</text>
</g>
</g>
</svg>
